<svg width="2187" height="724" viewBox="0 0 2187 724" fill="none" xmlns="http://www.w3.org/2000/svg">
<g clip-path="url(#clip0_104_2)">
<path d="M2187 283C2101.8 242.9 1880.6 219.4 1677.3 292.1C1423.1 382.9 1795.3 638.1 1435.2 648.5C1092.7 658.4 1057.7 406.6 807.1 628C760.8 668.9 704.8 697.5 644.2 709.8C375.2 764.3 225.5 511.5 0 602.7" stroke="#B5E5FF"/>
<path d="M2186.7 226.8C2101.5 186.7 1853.6 122.8 1650.2 195.5C1396 286.3 1768.2 541.5 1408.1 551.9C1047.9 562.3 988.2 303.1 699.8 589.5C411.4 875.9 257.5 361.7 0 465.8" stroke="#B5E5FF"/>
<path d="M2186.7 202.2C2101.5 162.1 1826.7 76.6 1623.4 149.2C1369.2 240 1741.4 495.2 1381.3 505.6C1021.1 516 961.4 256.8 673 543.2C384.6 829.6 257.5 313.7 0 417.8" stroke="#B5E5FF"/>
<path d="M2186.1 161.5C2100.9 121.4 1799.7 33.7 1596.4 106.3C1342.2 197.1 1714.4 452.3 1354.3 462.7C994.1 473.1 934.4 213.9 646 500.3C357.6 786.7 257.3 248.1 -0.199951 352.2" stroke="#B5E5FF"/>
<path d="M2187 352.4C2101.8 395.8 1799.9 599.5 1596.6 520.9C1342.4 422.7 1714.6 147 1354.5 135.7C994.3 124.4 976.7 397.4 688.3 87.8C470.9 -172.6 257.5 274 0 161.5" stroke="#B5E5FF"/>
<path d="M2186.7 417.8C2101.5 461.2 1853.5 649.5 1650.2 571C1396 472.8 1768.2 197.1 1408.1 185.8C1047.9 174.5 988.2 454.7 699.8 145.2C411.4 -164.3 257.8 314.9 0.300049 202.3" stroke="#B5E5FF"/>
<path d="M2186.8 465.8C2101.6 509.2 1826.8 699.5 1623.4 621C1369.2 522.8 1741.4 247.1 1381.3 235.8C1021.1 224.5 961.4 504.7 673 195.2C442.1 -103 257.8 339.4 0.300049 226.8" stroke="#B5E5FF"/>
<path d="M2187 602.7C2101.8 646.1 1799.9 749.6 1596.5 671.1C1342.3 572.9 1714.5 297.2 1354.4 285.9C994.2 274.6 934.5 554.8 646.1 245.3C357.7 -64.3 257.8 395.6 0.300049 283" stroke="#B5E5FF"/>
</g>
<defs>
<clipPath id="clip0_104_2">
<rect width="2186.7" height="724" fill="white"/>
</clipPath>
</defs>
</svg>
