<?xml version="1.0" encoding="utf-8"?>
<!-- Generator: Adobe Illustrator 27.0.0, SVG Export Plug-In . SVG Version: 6.00 Build 0)  -->
<svg version="1.1" xmlns="http://www.w3.org/2000/svg" xmlns:xlink="http://www.w3.org/1999/xlink" x="0px" y="0px"
	 viewBox="0 0 2186.7 724" style="enable-background:new 0 0 2186.7 724;" xml:space="preserve">
<style type="text/css">
	.st0{display:none;}
	.st1{display:inline;fill:none;stroke:#FFFFFF;}
	.st2{fill:none;stroke:#FFFFFF;}
</style>
<g id="Layer_1">
	<g>
		<g class="st0">
			<path class="st1" d="M4372.8,321.4c-85.2-40.1-306.1-102.2-509.5-29.5c-254.2,90.8,118,346-242.1,356.4
				c-342.5,9.9-377.5-241.9-628.1-20.5c-46.3,40.9-102.3,69.5-162.9,81.8c-268.9,54.5-418.6-198.4-644.1-107.2"/>
			<path class="st1" d="M4372.8,226.6c-85.2-40.1-333.1-104-536.5-31.3c-254.2,90.8,118,346-242.1,356.4
				c-360.2,10.4-419.9-248.8-708.3,37.6c-288.4,286.4-442.3-227.8-699.8-123.7"/>
			<path class="st1" d="M4372.8,202c-85.2-40.1-360-125.6-563.3-53c-254.2,90.8,118,346-242.1,356.4
				c-360.2,10.4-419.9-248.8-708.3,37.6c-288.4,286.4-415.5-229.5-673-125.4"/>
			<path class="st1" d="M4372.8,161.3c-85.2-40.1-386.8-131.2-590.2-58.5c-254.2,90.8,118,346-242.1,356.4
				c-360.2,10.4-419.9-248.8-708.3,37.6s-388.1-279.3-645.7-175.2"/>
			<path class="st1" d="M4373.1,334.9c-85.2,43.4-387,264.4-590.4,185.9c-254.2-98.2,118-373.9-242.1-385.2
				c-360.2-11.3-377.8,261.7-666.2-47.9c-217.4-260.5-430.7,186.1-688.2,73.5"/>
			<path class="st1" d="M4372.8,417.6c-85.2,43.4-333.2,231.7-536.5,153.2c-254.2-98.2,118-373.9-242.1-385.2
				c-360.2-11.3-419.9,268.9-708.3-40.6s-441.9,169.7-699.5,57.1"/>
			<path class="st1" d="M4372.9,465.6c-85.2,43.4-360,233.7-563.4,155.2c-254.2-98.2,118-373.9-242.1-385.2
				c-360.2-11.3-419.9,268.9-708.3-40.6c-230.9-298.2-415.1,144.2-672.7,31.7"/>
			<path class="st1" d="M4373.1,603.7c-85.2,43.4-387.1,145.7-590.5,67.2c-254.2-98.2,118-373.9-242.1-385.2
				c-360.2-11.3-419.9,268.9-708.3-40.6c-288.4-309.5-388.6,202.4-646.1,89.9"/>
		</g>
		<path class="st2" d="M2187,283c-85.2-40.1-306.4-63.6-509.7,9.1c-254.2,90.8,118,346-242.1,356.4
			c-342.5,9.9-377.5-241.9-628.1-20.5c-46.3,40.9-102.3,69.5-162.9,81.8C375.2,764.3,225.5,511.5,0,602.7"/>
		<path class="st2" d="M2186.7,226.8c-85.2-40.1-333.1-104-536.5-31.3c-254.2,90.8,118,346-242.1,356.4
			c-360.2,10.4-419.9-248.8-708.3,37.6C411.4,875.9,257.5,361.7,0,465.8"/>
		<path class="st2" d="M2186.7,202.2c-85.2-40.1-360-125.6-563.3-53c-254.2,90.8,118,346-242.1,356.4
			C1021.1,516,961.4,256.8,673,543.2C384.6,829.6,257.5,313.7,0,417.8"/>
		<path class="st2" d="M2186.1,161.5c-85.2-40.1-386.4-127.8-589.7-55.2c-254.2,90.8,118,346-242.1,356.4
			C994.1,473.1,934.4,213.9,646,500.3S257.3,248.1-0.2,352.2"/>
		<path class="st2" d="M2187,352.4c-85.2,43.4-387.1,247.1-590.4,168.5c-254.2-98.2,118-373.9-242.1-385.2
			c-360.2-11.3-377.8,261.7-666.2-47.9C470.9-172.6,257.5,274,0,161.5"/>
		<path class="st2" d="M2186.7,417.8c-85.2,43.4-333.2,231.7-536.5,153.2c-254.2-98.2,118-373.9-242.1-385.2
			c-360.2-11.3-419.9,268.9-708.3-40.6S257.8,314.9,0.3,202.3"/>
		<path class="st2" d="M2186.8,465.8c-85.2,43.4-360,233.7-563.4,155.2c-254.2-98.2,118-373.9-242.1-385.2
			c-360.2-11.3-419.9,268.9-708.3-40.6C442.1-103,257.8,339.4,0.3,226.8"/>
		<path class="st2" d="M2187,602.7c-85.2,43.4-387.1,146.9-590.5,68.4c-254.2-98.2,118-373.9-242.1-385.2
			c-360.2-11.3-419.9,268.9-708.3-40.6C357.7-64.3,257.8,395.6,0.3,283"/>
	</g>
</g>
<g id="Layer_3">
</g>
<g id="Layer_2">
</g>
</svg>
