<svg width="300" height="263" viewBox="0 0 300 263" fill="none" xmlns="http://www.w3.org/2000/svg">
<g clip-path="url(#clip0_312_305)">
<path d="M27.4821 233.861C26.9386 230.358 25.8785 226.954 24.3362 223.762L24.1114 223.297L22.4415 225.148L23.6788 222.391L23.5979 222.23C22.506 220.069 21.296 217.97 19.9732 215.941L19.7278 215.566L19.4006 215.928L19.6297 215.418L19.515 215.246C17.8767 212.788 16.618 211.234 16.6055 211.218L16.2496 210.781L16.0207 211.303C15.9787 211.398 11.8186 220.984 11.2676 230.457L11.2589 230.604L14.0587 233.989L11.2034 232.196L11.2083 232.847C11.217 233.96 11.2928 235.072 11.4352 236.176C11.5609 237.126 11.7089 238.053 11.8792 238.958C12.1491 238.966 12.4116 239.048 12.6384 239.195C12.4412 238.184 12.2711 237.145 12.1281 236.078C12.0179 235.226 11.9484 234.36 11.9207 233.497L17.4436 236.965L11.9743 230.354C12.4723 222.345 15.563 214.276 16.4307 212.146C16.8964 212.75 17.7749 213.923 18.8258 215.489L16.9154 219.748L19.6391 216.728C20.82 218.566 21.9077 220.463 22.8982 222.41L19.9563 228.968L23.9339 224.558C25.3232 227.545 26.2848 230.713 26.7906 233.969C27.4867 239.228 27.3508 244.279 26.4078 248.194C25.5046 251.943 23.9127 254.248 22.0402 254.517C21.6548 254.571 21.2627 254.547 20.8863 254.449C20.5845 254.663 20.2213 254.774 19.8512 254.765H19.7491C20.3299 255.087 20.9811 255.262 21.6453 255.274C21.8094 255.274 21.9733 255.262 22.1358 255.239C24.3373 254.923 26.0954 252.483 27.0861 248.371C28.0502 244.368 28.1914 239.218 27.4821 233.861Z" fill="#E6E6E6"/>
<path d="M21.3207 254.998C18.441 254.998 14.2889 253.413 10.1706 250.53C9.56448 250.102 8.98566 249.636 8.4376 249.136L7.97633 248.715L9.72032 248.213L7.39813 248.128L7.30014 248.025C2.94733 243.466 0.238655 237.027 0.211682 236.963L0 236.454L0.550374 236.479C0.605173 236.482 1.91368 236.543 3.88028 236.822L4.00285 236.84V236.839L4.43406 236.904C6.03996 237.148 7.63084 237.483 9.19914 237.906L9.36661 237.951L9.88984 239.24L9.81047 238.084L10.2905 238.222C12.5658 238.879 14.7268 239.881 16.6982 241.193C22.9611 245.579 26.4265 251.06 24.5946 253.676C23.9684 254.57 22.8158 254.997 21.3207 254.998ZM9.38367 249.037C9.76623 249.361 10.1643 249.67 10.5727 249.957C16.3088 253.974 22.4677 255.493 24.0217 253.275C25.5753 251.057 22.0409 245.788 16.304 241.771C14.5341 240.593 12.6058 239.673 10.5769 239.039L10.8871 243.555L8.84951 238.536C7.50755 238.18 6.13468 237.887 4.76028 237.663L4.98544 240.941L3.58304 237.487C2.49646 237.337 1.62054 237.257 1.08775 237.215C1.81413 238.81 4.21433 243.736 7.70829 247.439L14.1168 247.674L9.38367 249.037Z" fill="#E6E6E6"/>
<path d="M113.405 254.603H0.11792V255.386H113.405V254.603Z" fill="#3F3D56"/>
<path d="M271.717 60.4654H270.319V22.1664C270.319 19.2555 269.746 16.3731 268.632 13.6837C267.518 10.9944 265.885 8.55075 263.827 6.49241C261.769 4.43406 259.325 2.8013 256.636 1.68733C253.946 0.573359 251.064 3.21392e-06 248.153 0H167.011C161.133 -1.29814e-05 155.494 2.33536 151.337 6.49235C147.18 10.6493 144.845 16.2874 144.845 22.1663V232.278C144.845 238.156 147.18 243.795 151.337 247.952C155.494 252.109 161.132 254.444 167.011 254.444H248.153C254.032 254.444 259.67 252.109 263.827 247.952C267.984 243.795 270.319 238.156 270.319 232.278V87.7272H271.717L271.717 60.4654Z" fill="#E6E6E6"/>
<path d="M249.047 5.76692H238.456C238.943 6.96109 239.129 8.25672 238.997 9.53967C238.866 10.8226 238.42 12.0535 237.701 13.1239C236.982 14.1944 236.01 15.0714 234.872 15.6779C233.734 16.2844 232.464 16.6017 231.174 16.6018H184.689C183.4 16.6017 182.13 16.2844 180.991 15.6779C179.853 15.0714 178.882 14.1944 178.162 13.1239C177.443 12.0535 176.998 10.8226 176.866 9.53966C176.735 8.25671 176.921 6.96108 177.408 5.76691H167.515C165.341 5.7669 163.189 6.19507 161.18 7.02697C159.172 7.85886 157.347 9.07819 155.81 10.6153C154.273 12.1525 153.053 13.9773 152.222 15.9857C151.39 17.9941 150.961 20.1467 150.961 22.3205V232.123C150.961 234.297 151.39 236.45 152.221 238.458C153.053 240.467 154.273 242.291 155.81 243.829C157.347 245.366 159.172 246.585 161.18 247.417C163.189 248.249 165.341 248.677 167.515 248.677H249.047C251.221 248.677 253.374 248.249 255.382 247.417C257.391 246.585 259.215 245.366 260.753 243.829C262.29 242.291 263.509 240.467 264.341 238.458C265.173 236.45 265.601 234.297 265.601 232.123V22.3205C265.601 20.1467 265.173 17.9941 264.341 15.9857C263.509 13.9774 262.29 12.1525 260.753 10.6154C259.215 9.07821 257.391 7.85888 255.382 7.02699C253.374 6.19509 251.221 5.76692 249.047 5.76692Z" fill="white"/>
<path d="M210.498 85.6643C205.45 85.6643 200.515 84.1675 196.318 81.3631C192.121 78.5587 188.85 74.5727 186.918 69.9091C184.987 65.2456 184.481 60.114 185.466 55.1632C186.451 50.2124 188.882 45.6648 192.451 42.0954C196.02 38.5261 200.568 36.0954 205.519 35.1106C210.469 34.1258 215.601 34.6312 220.265 36.5629C224.928 38.4946 228.914 41.7659 231.718 45.963C234.523 50.16 236.02 55.0945 236.02 60.1423C236.012 66.9088 233.321 73.396 228.536 78.1806C223.751 82.9653 217.264 85.6567 210.498 85.6643ZM210.498 35.3194C205.588 35.3194 200.789 36.7753 196.707 39.5028C192.625 42.2304 189.443 46.1072 187.564 50.643C185.686 55.1788 185.194 60.1698 186.152 64.985C187.11 69.8001 189.474 74.2231 192.945 77.6947C196.417 81.1662 200.84 83.5304 205.655 84.4881C210.47 85.4459 215.461 84.9544 219.997 83.0756C224.533 81.1968 228.41 78.0152 231.137 73.9331C233.865 69.851 235.321 65.0518 235.321 60.1423C235.313 53.5611 232.695 47.2517 228.042 42.5981C223.388 37.9445 217.079 35.3269 210.498 35.3194Z" fill="#3F3D56"/>
<path d="M205.603 232.853C203.045 232.853 200.544 232.095 198.417 230.673C196.289 229.252 194.631 227.232 193.652 224.868C192.673 222.504 192.417 219.903 192.916 217.394C193.415 214.885 194.647 212.58 196.456 210.77C198.265 208.961 200.57 207.729 203.08 207.23C205.589 206.731 208.19 206.987 210.554 207.966C212.917 208.945 214.938 210.603 216.359 212.731C217.781 214.858 218.539 217.359 218.539 219.917C218.535 223.347 217.171 226.635 214.746 229.06C212.321 231.485 209.033 232.85 205.603 232.853ZM205.603 207.681C203.183 207.681 200.817 208.399 198.805 209.743C196.793 211.088 195.224 212.999 194.298 215.235C193.372 217.471 193.13 219.931 193.602 222.305C194.074 224.678 195.239 226.859 196.951 228.57C198.662 230.281 200.842 231.447 203.216 231.919C205.59 232.391 208.05 232.149 210.286 231.223C212.522 230.296 214.433 228.728 215.778 226.716C217.122 224.703 217.84 222.338 217.84 219.917C217.836 216.673 216.546 213.563 214.252 211.269C211.958 208.975 208.848 207.685 205.603 207.681Z" fill="#3F3D56"/>
<path d="M300 156.775H247.705V104.48H300V156.775ZM248.404 156.076H299.301V105.179H248.404V156.076Z" fill="#3F3D56"/>
<path d="M189.56 184.745H161.202V156.386H189.56V184.745ZM161.901 184.045H188.861V157.086H161.901V184.045Z" fill="#3F3D56"/>
<path d="M30.1647 84.0362C36.5227 84.0362 41.677 78.882 41.677 72.5239C41.677 66.1658 36.5227 61.0116 30.1647 61.0116C23.8066 61.0116 18.6523 66.1658 18.6523 72.5239C18.6523 78.882 23.8066 84.0362 30.1647 84.0362Z" fill="#2F2E41"/>
<path d="M49.3519 99.9342C56.921 99.9342 63.057 93.7982 63.057 86.2291C63.057 78.6599 56.921 72.5239 49.3519 72.5239C41.7827 72.5239 35.6467 78.6599 35.6467 86.2291C35.6467 93.7982 41.7827 99.9342 49.3519 99.9342Z" fill="#2F2E41"/>
<path d="M65.1519 204.191L58.4298 216.084C58.4298 216.084 49.6395 207.293 54.2932 204.966L61.5323 202.64L65.1519 204.191Z" fill="#FFB8B8"/>
<path d="M53.259 235.991L55.3273 244.782L49.1223 246.85L47.054 236.767L53.259 235.991Z" fill="#FFB8B8"/>
<path d="M66.1972 147.273L67.5298 160.872C67.5298 160.872 91.5231 182.99 83.2498 191.264C74.9765 199.537 64.6349 206.259 64.6349 206.259L59.9812 202.898L70.5814 188.42L49.1225 173.166L54.0348 237.025L46.5371 239.094L29.732 174.459C29.732 174.459 24.5612 153.775 37.2296 143.434L66.1972 147.273Z" fill="#2F2E41"/>
<path d="M50.9322 244.523C50.9322 244.523 54.8104 239.611 56.6201 244.006C57.8128 247.028 58.7638 250.141 59.4641 253.313C59.4641 253.313 66.1861 263.397 55.8445 262.104C45.5029 260.811 48.6054 256.157 48.6054 256.157C48.0552 255.801 47.6174 255.297 47.3428 254.702C47.0682 254.107 46.9681 253.446 47.0541 252.796C47.3127 250.47 48.6054 245.04 48.6054 245.04C48.6054 245.04 49.8981 242.713 50.9322 244.523Z" fill="#2F2E41"/>
<path d="M61.6616 210.784C61.6616 210.784 63.8592 212.981 60.2396 216.601C60.2396 216.601 59.7225 226.684 55.0688 225.65C50.4151 224.616 48.8638 211.947 49.3809 210.654C49.898 209.362 48.6053 199.796 51.7078 200.054C54.8103 200.313 58.6884 203.674 58.6884 203.674C58.6884 203.674 51.9663 209.879 58.4298 214.015C58.4298 214.015 60.1103 213.369 61.6616 210.784Z" fill="#2F2E41"/>
<path d="M42.4004 110.858L62.0495 111.375C57.7195 105.23 56.9045 97.9812 58.6884 89.916L45.7614 92.5014C48.2508 99.0836 48.2937 104.73 42.4004 110.858Z" fill="#FFB8B8"/>
<path d="M36.1953 144.209L66.7031 152.741L72.558 112.407C72.4385 110.593 71.6868 108.879 70.4337 107.563C69.1805 106.247 67.5054 105.412 65.7 105.203L58.6883 104.394L46.0198 105.687L40.0281 107.38C38.349 107.855 36.8797 108.883 35.8587 110.298C34.8377 111.713 34.3249 113.431 34.4036 115.174L36.1953 144.209Z" fill="#3D6CB9"/>
<path d="M65.4104 144.985L70.3226 150.673L82.2155 138.004L77.794 116.081C77.2666 113.466 75.9728 111.068 74.0772 109.191C72.1817 107.314 69.7703 106.043 67.1503 105.542L63.8591 104.911L71.0983 134.385L65.4104 144.985Z" fill="#3D6CB9"/>
<path d="M65.6541 152.98L69.2885 148.088L66.186 144.985L61.1469 146.3C60.4347 146.485 59.7827 146.852 59.2539 147.364C58.7251 147.876 58.3376 148.516 58.1289 149.222C57.9202 149.927 57.8975 150.675 58.0628 151.392C58.2281 152.11 58.576 152.772 59.0726 153.315C59.4976 153.78 60.02 154.145 60.6026 154.384C61.1851 154.623 61.8134 154.731 62.4423 154.699C63.0713 154.667 63.6854 154.496 64.2406 154.199C64.7959 153.902 65.2785 153.486 65.6541 152.98Z" fill="#FFB8B8"/>
<path d="M41.6247 146.536L36.7124 152.224L24.8196 139.556L29.2411 117.633C29.7684 115.018 31.0623 112.619 32.9578 110.742C34.8534 108.865 37.2648 107.594 39.8848 107.093L43.1759 106.463L35.9368 135.936L41.6247 146.536Z" fill="#3D6CB9"/>
<path d="M41.381 154.531L37.7466 149.639L40.8491 146.536L45.8882 147.851C46.6003 148.037 47.2524 148.403 47.7812 148.915C48.31 149.427 48.6975 150.067 48.9062 150.773C49.1149 151.479 49.1376 152.226 48.9723 152.944C48.8069 153.661 48.4591 154.323 47.9624 154.866C47.5375 155.331 47.015 155.696 46.4325 155.935C45.8499 156.175 45.2217 156.282 44.5927 156.25C43.9638 156.218 43.3497 156.047 42.7945 155.75C42.2392 155.453 41.7565 155.037 41.381 154.531Z" fill="#FFB8B8"/>
<path d="M51.2466 96.3133C56.2037 96.3133 60.2222 92.2948 60.2222 87.3377C60.2222 82.3806 56.2037 78.3621 51.2466 78.3621C46.2895 78.3621 42.271 82.3806 42.271 87.3377C42.271 92.2948 46.2895 96.3133 51.2466 96.3133Z" fill="#FFB8B8"/>
<path d="M60.8642 86.5032H45.5145L40.8547 80.1988C45.439 76.1862 51.1765 75.467 57.575 76.6355L60.8642 86.5032Z" fill="#2F2E41"/>
<path d="M196.513 76.9239C208.098 76.9239 217.49 67.5321 217.49 55.9468C217.49 44.3615 208.098 34.9698 196.513 34.9698C184.928 34.9698 175.536 44.3615 175.536 55.9468C175.536 67.5321 184.928 76.9239 196.513 76.9239Z" fill="#E6E6E6"/>
<path d="M285.318 95.5134H239.455V141.377H285.318V95.5134Z" fill="#3D6CB9"/>
<path d="M169.234 176.328H193.82V151.742H169.234V176.328Z" fill="#E6E6E6"/>
<path d="M198.611 228.308C204.403 228.308 209.099 223.612 209.099 217.82C209.099 212.027 204.403 207.331 198.611 207.331C192.818 207.331 188.122 212.027 188.122 217.82C188.122 223.612 192.818 228.308 198.611 228.308Z" fill="#3D6CB9"/>
</g>
<defs>
<clipPath id="clip0_312_305">
<rect width="300" height="262.218" fill="white"/>
</clipPath>
</defs>
</svg>
