<svg width="1474" height="451" viewBox="0 0 1474 451" fill="none" xmlns="http://www.w3.org/2000/svg">
<path d="M341.106 226.531H300.72V252.359H341.106V226.531Z" fill="black"/>
<path d="M278.18 266.916H237.794V292.744H278.18V266.916Z" fill="black"/>
<path d="M459.165 234.984V180.041H428.641V144.352H407.979V180.041H377.455V234.984H360.55V111.48H326.269V99.7399H280.718V88H235.637V99.7399H192.904V111.48H155.806V234.514H136.083V179.571H105.559V143.882H84.8965V179.571H54.3727V234.514H34.6497V429.397H79.731V360.366H110.724V429.397H231.88V349.096H284.475V429.397H357.732V429.867H402.814V360.836H433.807V429.867H478.888V234.984H459.165ZM50.8507 258.464H68.6954V272.552H50.8507V258.464ZM51.0855 297.91H68.9302V311.998H51.0855V297.91ZM69.165 351.444H51.3203V337.356H69.165V351.444ZM115.89 224.183H74.5654V215.73H115.89V224.183ZM115.89 211.974H74.5654V203.521H115.89V211.974ZM115.89 199.764H74.5654V191.311H115.89V199.764ZM121.76 258.464H139.605V272.552H121.76V258.464ZM121.995 297.91H139.839V311.998H121.995V297.91ZM140.074 351.444H122.229V337.356H140.074V351.444ZM213.096 327.964H180.225V313.406H213.096V327.964ZM213.096 286.17H180.225V271.612H213.096V286.17ZM213.096 244.376H180.225V229.818H213.096V244.376ZM213.096 202.582H180.225V188.024H213.096V202.582ZM213.096 160.788H180.225V146.23H213.096V160.788ZM274.614 327.964H241.742V313.406H274.614V327.964ZM274.614 286.17H241.742V271.612H274.614V286.17ZM274.614 244.376H241.742V229.818H274.614V244.376ZM274.614 202.582H241.742V188.024H274.614V202.582ZM274.614 160.788H241.742V146.23H274.614V160.788ZM336.131 327.964H303.259V313.406H336.131V327.964ZM336.131 286.17H303.259V271.612H336.131V286.17ZM336.131 244.376H303.259V229.818H336.131V244.376ZM336.131 202.582H303.259V188.024H336.131V202.582ZM336.131 160.788H303.259V146.23H336.131V160.788ZM373.933 258.933H391.778V273.021H373.933V258.933ZM374.168 298.379H392.013V312.467H374.168V298.379ZM392.248 351.913H374.403V337.826H392.248V351.913ZM438.973 224.653H397.648V216.2H438.973V224.653ZM438.973 212.443H397.648V203.99H438.973V212.443ZM438.973 200.234H397.648V191.781H438.973V200.234ZM444.842 258.933H462.687V273.021H444.842V258.933ZM445.077 298.379H462.922V312.467H445.077V298.379ZM463.157 351.913H445.312V337.826H463.157V351.913Z" fill="#D8EBF5"/>
<path d="M858.827 238.271V183.328H828.303V147.639H807.641V183.328H777.117V238.271H760.211V114.767H725.931V103.027H680.38V91.2872H635.298V103.027H592.565V114.767H555.467V237.801H535.744V182.859H505.22V147.169H484.558V182.859H454.034V237.801H434.311V432.684H479.392V363.653H510.386V432.684H631.542V352.383H684.137V432.684H757.394V433.154H802.475V364.123H833.468V433.154H878.55V238.271H858.827ZM450.512 261.751H468.357V275.839H450.512V261.751ZM450.747 301.197H468.592V315.285H450.747V301.197ZM468.826 354.731H450.982V340.643H468.826V354.731ZM515.551 227.47H474.227V219.018H515.551V227.47ZM515.551 215.261H474.227V206.808H515.551V215.261ZM515.551 203.051H474.227V194.598H515.551V203.051ZM521.421 261.751H539.266V275.839H521.421V261.751ZM521.656 301.197H539.501V315.285H521.656V301.197ZM539.736 354.731H521.891V340.643H539.736V354.731ZM612.758 331.251H579.886V316.694H612.758V331.251ZM612.758 289.457H579.886V274.9H612.758V289.457ZM612.758 247.663H579.886V233.105H612.758V247.663ZM612.758 205.869H579.886V191.311H612.758V205.869ZM612.758 164.075H579.886V149.517H612.758V164.075ZM674.275 331.251H641.403V316.694H674.275V331.251ZM674.275 289.457H641.403V274.9H674.275V289.457ZM674.275 247.663H641.403V233.105H674.275V247.663ZM674.275 205.869H641.403V191.311H674.275V205.869ZM674.275 164.075H641.403V149.517H674.275V164.075ZM735.792 331.251H702.92V316.694H735.792V331.251ZM735.792 289.457H702.92V274.9H735.792V289.457ZM735.792 247.663H702.92V233.105H735.792V247.663ZM735.792 205.869H702.92V191.311H735.792V205.869ZM735.792 164.075H702.92V149.517H735.792V164.075ZM773.595 262.22H791.439V276.308H773.595V262.22ZM773.83 301.667H791.674V315.754H773.83V301.667ZM791.909 355.201H774.064V341.113H791.909V355.201ZM838.634 227.94H797.309V219.487H838.634V227.94ZM838.634 215.73H797.309V207.278H838.634V215.73ZM838.634 203.521H797.309V195.068H838.634V203.521ZM844.504 262.22H862.349V276.308H844.504V262.22ZM844.739 301.667H862.583V315.754H844.739V301.667ZM862.818 355.201H844.973V341.113H862.818V355.201Z" fill="#D8EBF5"/>
<path d="M1295.52 255.984V201.041H1264.99V165.352H1244.33V201.041H1213.81V255.984H1196.9V132.48H1162.62V120.74H1117.07V109H1071.99V120.74H1029.25V132.48H992.156V255.514H972.433V200.571H941.909V164.882H921.247V200.571H890.723V255.514H871V450.397H916.081V381.366H947.075V450.397H1068.23V370.096H1120.83V450.397H1194.08V450.867H1239.16V381.836H1270.16V450.867H1315.24V255.984H1295.52ZM887.201 279.464H905.046V293.552H887.201V279.464ZM887.436 318.91H905.281V332.998H887.436V318.91ZM905.515 372.444H887.671V358.356H905.515V372.444ZM952.24 245.183H910.916V236.73H952.24V245.183ZM952.24 232.974H910.916V224.521H952.24V232.974ZM952.24 220.764H910.916V212.311H952.24V220.764ZM958.11 279.464H975.955V293.552H958.11V279.464ZM958.345 318.91H976.19V332.998H958.345V318.91ZM976.424 372.444H958.58V358.356H976.424V372.444ZM1049.45 348.964H1016.58V334.406H1049.45V348.964ZM1049.45 307.17H1016.58V292.612H1049.45V307.17ZM1049.45 265.376H1016.58V250.818H1049.45V265.376ZM1049.45 223.582H1016.58V209.024H1049.45V223.582ZM1049.45 181.788H1016.58V167.23H1049.45V181.788ZM1110.96 348.964H1078.09V334.406H1110.96V348.964ZM1110.96 307.17H1078.09V292.612H1110.96V307.17ZM1110.96 265.376H1078.09V250.818H1110.96V265.376ZM1110.96 223.582H1078.09V209.024H1110.96V223.582ZM1110.96 181.788H1078.09V167.23H1110.96V181.788ZM1172.48 348.964H1139.61V334.406H1172.48V348.964ZM1172.48 307.17H1139.61V292.612H1172.48V307.17ZM1172.48 265.376H1139.61V250.818H1172.48V265.376ZM1172.48 223.582H1139.61V209.024H1172.48V223.582ZM1172.48 181.788H1139.61V167.23H1172.48V181.788ZM1210.28 279.933H1228.13V294.021H1210.28V279.933ZM1210.52 319.379H1228.36V333.467H1210.52V319.379ZM1228.6 372.913H1210.75V358.826H1228.6V372.913ZM1275.32 245.653H1234V237.2H1275.32V245.653ZM1275.32 233.443H1234V224.99H1275.32V233.443ZM1275.32 221.234H1234V212.781H1275.32V221.234ZM1281.19 279.933H1299.04V294.021H1281.19V279.933ZM1281.43 319.379H1299.27V333.467H1281.43V319.379ZM1299.51 372.913H1281.66V358.826H1299.51V372.913Z" fill="#D8EBF5"/>
<path d="M62.4441 381.831C62.3128 383.689 62.1072 385.767 61.7893 387.95L67.5305 381.583L67.5621 381.69C67.211 380.157 66.6457 378.682 65.8828 377.308L65.9195 377.408L62.4441 381.831Z" fill="black"/>
<path d="M62.4666 381.505L65.8331 377.221C65.1169 375.914 64.0809 374.81 62.822 374.012C62.7603 373.975 62.6983 373.941 62.6362 373.907C62.6546 374.413 62.7428 377.383 62.4666 381.505Z" fill="black"/>
<path d="M59.4292 398.302C59.2813 398.752 59.1285 399.194 58.9709 399.629L67.4259 394.671L67.4377 394.796C67.6144 394.025 67.7615 393.254 67.8791 392.483L59.4369 398.358L59.4292 398.302Z" fill="black"/>
<path d="M60.6052 394.141L68.2201 387.861L68.2417 387.978C68.2686 385.902 68.0494 383.829 67.5888 381.804L61.7382 388.293C61.4309 390.338 61.0533 392.287 60.6052 394.141Z" fill="black"/>
<path d="M61.6078 388.169L52.4961 378.003L52.5449 377.888C51.6884 379.094 50.9559 380.383 50.3586 381.736L60.7564 392.807C61.1126 391.191 61.3908 389.627 61.6078 388.169Z" fill="black"/>
<path d="M50.2603 381.965L50.2606 381.966C50.2771 381.928 50.2913 381.887 50.3079 381.849L50.2603 381.965Z" fill="black"/>
<path d="M49.7534 383.212L49.7065 383.329C49.7214 383.289 49.7384 383.252 49.7534 383.212Z" fill="black"/>
<path d="M60.6963 393.076L50.2605 381.966C50.0841 382.37 49.9151 382.785 49.7534 383.213L60.4194 394.252C60.5164 393.858 60.6087 393.466 60.6963 393.076Z" fill="black"/>
<path d="M67.9017 392.335C68.1095 390.937 68.2227 389.527 68.2406 388.115L60.5228 394.479C60.217 395.714 59.8806 396.9 59.5134 398.039L67.8853 392.213L67.9017 392.335Z" fill="black"/>
<path d="M48.3697 393.127L56.817 404.148C57.5111 402.806 58.124 401.424 58.6526 400.009L48.3452 389.183C48.243 390.537 48.2317 391.895 48.3113 393.25L48.3697 393.127Z" fill="black"/>
<path d="M62.482 373.897L62.5577 373.864C60.7078 372.875 58.705 372.981 56.7854 373.983L62.3179 381.498C62.6157 377.038 62.4841 373.942 62.482 373.897Z" fill="black"/>
<path d="M58.6972 400.366C58.2123 401.639 57.6584 402.885 57.0381 404.097L65.5352 399.701L65.5437 399.823C66.1839 398.742 66.6845 397.584 67.0335 396.376C67.1685 395.901 67.2917 395.425 67.4031 394.947L58.8473 399.964C58.7974 400.098 58.748 400.233 58.6972 400.366Z" fill="black"/>
<path d="M62.2952 381.83L56.6358 374.143L56.6889 374.034C55.0691 374.971 53.6771 376.255 52.613 377.795L61.6504 387.878C61.9632 385.72 62.1657 383.666 62.2952 381.83Z" fill="black"/>
<path d="M58.7451 399.761C59.3751 398.042 59.9122 396.291 60.3539 394.515L49.6614 383.448C49.4069 384.139 49.1731 384.858 48.9601 385.605C48.6645 386.676 48.4672 387.771 48.3706 388.878L58.737 399.766L58.7451 399.761Z" fill="black"/>
<path d="M69.7278 411.7C68.4418 413.047 66.9582 414.517 65.3208 415.995L73.8037 414.753L73.76 414.856C74.4669 413.451 74.9724 411.955 75.2615 410.41L75.2255 410.511L69.7278 411.7Z" fill="black"/>
<path d="M75.0059 405.919C74.9818 405.852 74.956 405.785 74.9301 405.719C74.6216 406.121 72.7949 408.465 69.9529 411.464L75.2784 410.311C75.5604 408.848 75.4666 407.337 75.0059 405.919Z" fill="black"/>
<path d="M56.9008 422.463C56.4995 422.715 56.0997 422.959 55.7014 423.192L65.3753 424.767L65.305 424.87C65.9327 424.389 66.5377 423.889 67.1199 423.371L56.8705 422.511L56.9008 422.463Z" fill="black"/>
<path d="M60.4602 420.008L70.3306 420.028L70.2723 420.132C71.6174 418.55 72.7704 416.814 73.7072 414.961L65.0627 416.227C63.5217 417.606 61.9875 418.866 60.4602 420.008Z" fill="black"/>
<path d="M57.1326 422.314L67.2965 423.167L67.2317 423.271C68.2831 422.327 69.2695 421.313 70.1844 420.237L60.1806 420.216C59.1578 420.972 58.1418 421.671 57.1326 422.314Z" fill="black"/>
<path d="M44.684 427.344C44.7559 427.271 44.8321 427.192 44.9073 427.115C46.9798 426.785 49.005 426.206 50.9391 425.392L51.2154 418.066C51.2973 417.88 51.377 417.692 51.4543 417.503L51.1603 425.299C52.5505 424.708 53.904 424.035 55.2135 423.283L54.2696 409.665C54.3424 409.627 54.4157 409.589 54.4912 409.549L55.4339 423.149L55.4431 423.15C57.0246 422.229 58.5552 421.222 60.0284 420.136L59.0006 406.735C59.0734 406.682 59.146 406.63 59.2189 406.575L60.2467 419.975C60.5727 419.733 60.8936 419.491 61.2095 419.246L60.3616 405.681C60.4342 405.622 60.5068 405.562 60.5792 405.501L61.4277 419.077C62.7326 418.06 63.9446 417.032 65.0413 416.048L64.5079 402.407L64.6188 402.349C64.2401 402.448 63.8551 402.565 63.4668 402.693C64.1969 401.859 64.8536 400.964 65.4297 400.017L56.8513 404.455C56.2575 405.583 55.5896 406.671 54.852 407.711C54.6987 407.856 54.5454 408 54.3943 408.151L54.4056 408.314C54.3355 408.406 54.2659 408.499 54.1951 408.59L54.1799 408.37C54.0716 408.481 53.966 408.599 53.8589 408.713C54.9453 407.357 55.8987 405.899 56.706 404.36L48.3205 393.42C48.3776 394.398 48.4732 395.382 48.5962 396.358C47.8176 395.093 46.8721 393.937 45.7852 392.924L45.8512 393.008L43.9132 398.289C44.3625 400.096 44.8092 402.136 45.1818 404.311L48.6257 396.588C48.6415 396.709 48.6581 396.829 48.6747 396.949L45.239 404.652C45.5789 406.692 45.8223 408.663 45.9691 410.564L50.0927 404.087C50.1163 404.18 50.1398 404.273 50.1634 404.365L45.9954 410.912C46.086 412.18 46.1328 413.413 46.1357 414.609L51.1764 407.959C51.2033 408.047 51.2295 408.131 51.2557 408.215L46.1617 414.936L46.1369 414.885C46.1355 415.359 46.1269 415.827 46.1112 416.288L51.797 409.887C51.8272 409.976 51.8553 410.058 51.8812 410.133L46.097 416.645C46.091 416.789 46.0858 416.932 46.0785 417.074C46.0108 418.435 45.8691 419.791 45.654 421.136L46.2027 420.58C46.0988 420.796 45.9976 421.008 45.8991 421.218L45.5868 421.534C45.551 421.74 45.5102 421.94 45.4708 422.143C45.3557 422.396 45.2446 422.643 45.1378 422.883C45.2409 422.421 45.3371 421.957 45.4192 421.488L34.0627 413.676C37.0256 421.256 42.6049 428.466 42.962 428.924C43.252 428.382 43.5154 427.825 43.7573 427.256C43.8276 427.249 43.8979 427.243 43.9681 427.236C43.9391 427.305 43.9089 427.374 43.8794 427.443C43.844 427.447 43.8081 427.453 43.7727 427.456C43.8003 427.464 43.8333 427.473 43.8632 427.481C43.6928 427.879 43.5162 428.27 43.3269 428.647C43.5747 428.424 43.9523 428.072 44.4036 427.625C47.0741 428.306 54.2682 429.764 60.4281 427.611L50.9903 425.558C48.9706 426.413 46.8521 427.013 44.684 427.344ZM51.3158 415.402L51.5422 415.173L51.5292 415.516L51.3029 415.745L51.3158 415.402Z" fill="black"/>
<path d="M74.8174 405.614L74.8973 405.636C74.1029 403.695 72.4927 402.499 70.3751 402.047L69.8433 411.363C72.9173 408.118 74.7906 405.649 74.8174 405.614Z" fill="black"/>
<path d="M55.0204 423.585C53.835 424.257 52.6139 424.863 51.3625 425.401L60.7109 427.435L60.6395 427.534C61.8224 427.11 62.9467 426.537 63.9856 425.83C64.3925 425.55 64.7912 425.262 65.1816 424.965L55.3924 423.372C55.2684 423.443 55.1441 423.516 55.0204 423.585Z" fill="black"/>
<path d="M65.2594 415.851C66.8772 414.388 68.3429 412.936 69.6137 411.604L70.1578 402.074L70.2685 402.024C68.4232 401.712 66.5319 401.814 64.7305 402.321L65.2594 415.851Z" fill="black"/>
<path d="M45.7111 392.857C44.6259 391.835 43.2993 391.106 41.8555 390.736C41.7855 390.72 41.7158 390.706 41.6462 390.693C41.8201 391.168 42.8222 393.966 43.8336 397.972L45.7111 392.857Z" fill="black"/>
<path d="M45.0763 404.575L33.2684 397.723L33.2793 397.599C32.8374 399.01 32.5394 400.463 32.3896 401.934L45.7 409.249C45.5394 407.602 45.3204 406.028 45.0763 404.575Z" fill="black"/>
<path d="M32.3667 402.182L32.3672 402.183C32.3712 402.142 32.372 402.098 32.3762 402.058L32.3667 402.182Z" fill="black"/>
<path d="M32.2701 403.525L32.2615 403.65C32.2633 403.608 32.2681 403.568 32.2701 403.525Z" fill="black"/>
<path d="M45.7261 409.524L32.3671 402.183C32.3242 402.622 32.2919 403.069 32.2703 403.525L45.8261 410.727C45.7965 410.322 45.7632 409.921 45.7261 409.524Z" fill="black"/>
<path d="M45.9256 416.749L32.7766 409.639C33.0978 410.958 33.507 412.253 34.0015 413.518L34.0188 413.382L45.459 421.252C45.7044 419.762 45.8602 418.258 45.9256 416.749Z" fill="black"/>
<path d="M41.4966 390.732L41.5581 390.676C39.4932 390.308 37.6213 391.028 36.1055 392.574L43.6898 398.011C42.5944 393.677 41.5122 390.773 41.4966 390.732Z" fill="black"/>
<path d="M43.7706 398.334L36.0123 392.773L36.029 392.652C34.7781 394.044 33.8513 395.696 33.3152 397.489L45.0269 404.285C44.657 402.136 44.2149 400.12 43.7706 398.334Z" fill="black"/>
<path d="M45.9371 416.484C46.0051 414.655 45.9745 412.823 45.8455 410.997L32.256 403.778C32.2276 404.514 32.2275 405.27 32.2557 406.046C32.3056 407.156 32.4565 408.258 32.7067 409.341L45.9309 416.491L45.9371 416.484Z" fill="black"/>
<path d="M464.419 380.422C464.288 382.28 464.082 384.358 463.764 386.541L469.505 380.174L469.537 380.281C469.186 378.748 468.62 377.273 467.858 375.899L467.894 376L464.419 380.422Z" fill="black"/>
<path d="M464.441 380.097L467.808 375.812C467.092 374.505 466.056 373.401 464.797 372.603C464.735 372.567 464.673 372.532 464.611 372.498C464.63 373.004 464.718 375.974 464.441 380.097Z" fill="black"/>
<path d="M461.404 396.893C461.256 397.343 461.103 397.786 460.946 398.22L469.401 393.262L469.413 393.387C469.589 392.616 469.736 391.845 469.854 391.074L461.412 396.949L461.404 396.893Z" fill="black"/>
<path d="M462.58 392.732L470.195 386.452L470.217 386.569C470.243 384.493 470.024 382.421 469.564 380.396L463.713 386.884C463.406 388.929 463.028 390.878 462.58 392.732Z" fill="black"/>
<path d="M463.583 386.76L454.471 376.594L454.52 376.479C453.663 377.685 452.931 378.974 452.333 380.328L462.731 391.398C463.088 389.782 463.366 388.218 463.583 386.76Z" fill="black"/>
<path d="M452.235 380.557L452.235 380.557C452.252 380.519 452.266 380.478 452.283 380.441L452.235 380.557Z" fill="black"/>
<path d="M462.671 391.668L452.236 380.557C452.059 380.961 451.89 381.377 451.729 381.804L462.394 392.843C462.491 392.449 462.584 392.057 462.671 391.668Z" fill="black"/>
<path d="M451.728 381.803L451.681 381.92C451.696 381.88 451.713 381.843 451.728 381.803Z" fill="black"/>
<path d="M469.877 390.926C470.084 389.528 470.198 388.118 470.215 386.706L462.498 393.071C462.192 394.305 461.855 395.492 461.488 396.631L469.86 390.804L469.877 390.926Z" fill="black"/>
<path d="M450.344 391.718L458.792 402.739C459.486 401.397 460.099 400.015 460.627 398.601L450.32 387.774C450.218 389.128 450.207 390.487 450.286 391.842L450.344 391.718Z" fill="black"/>
<path d="M464.457 372.489L464.533 372.455C462.683 371.466 460.68 371.573 458.76 372.575L464.293 380.089C464.591 375.629 464.459 372.533 464.457 372.489Z" fill="black"/>
<path d="M460.672 398.957C460.187 400.23 459.633 401.476 459.013 402.689L467.51 398.292L467.518 398.415C468.158 397.333 468.659 396.175 469.008 394.967C469.143 394.493 469.266 394.016 469.378 393.539L460.822 398.555C460.772 398.689 460.723 398.824 460.672 398.957Z" fill="black"/>
<path d="M468.966 380.421L463.307 372.734L463.36 372.625C461.74 373.562 460.348 374.846 459.284 376.386L468.321 386.469C468.634 384.311 468.837 382.257 468.966 380.421Z" fill="black"/>
<path d="M465.416 398.352C466.046 396.634 466.583 394.882 467.025 393.106L456.332 382.039C456.078 382.731 455.844 383.45 455.631 384.196C455.335 385.267 455.138 386.363 455.041 387.469L465.408 398.357L465.416 398.352Z" fill="black"/>
<path d="M471.703 410.292C470.417 411.639 468.933 413.108 467.296 414.587L475.779 413.344L475.735 413.447C476.442 412.043 476.948 410.546 477.237 409.001L477.201 409.102L471.703 410.292Z" fill="black"/>
<path d="M476.981 404.51C476.957 404.443 476.931 404.377 476.905 404.311C476.597 404.712 474.77 407.056 471.928 410.055L477.253 408.902C477.535 407.439 477.442 405.928 476.981 404.51Z" fill="black"/>
<path d="M458.876 421.054C458.474 421.307 458.075 421.55 457.676 421.784L467.35 423.358L467.28 423.462C467.908 422.981 468.513 422.481 469.095 421.962L458.845 421.103L458.876 421.054Z" fill="black"/>
<path d="M462.435 418.599L472.306 418.619L472.247 418.724C473.592 417.141 474.746 415.406 475.682 413.552L467.038 414.818C465.497 416.197 463.963 417.457 462.435 418.599Z" fill="black"/>
<path d="M459.107 420.906L469.271 421.758L469.207 421.862C470.258 420.918 471.244 419.905 472.159 418.828L462.155 418.808C461.133 419.563 460.117 420.263 459.107 420.906Z" fill="black"/>
<path d="M446.659 425.935C446.731 425.863 446.807 425.784 446.882 425.706C448.955 425.376 450.98 424.797 452.914 423.983L453.19 416.658C453.272 416.471 453.352 416.284 453.429 416.094L453.135 423.89C454.525 423.3 455.879 422.626 457.188 421.874L456.244 408.256C456.317 408.218 456.39 408.18 456.466 408.14L457.409 421.74L457.418 421.742C458.999 420.82 460.53 419.813 462.003 418.727L460.975 405.326C461.048 405.273 461.121 405.221 461.194 405.167L462.221 418.566C462.547 418.325 462.868 418.082 463.184 417.838L462.336 404.272C462.409 404.213 462.482 404.153 462.554 404.093L463.403 417.668C464.707 416.651 465.919 415.624 467.016 414.639L466.483 400.998L466.594 400.94C466.215 401.039 465.83 401.156 465.442 401.284C466.172 400.45 466.828 399.555 467.404 398.608L458.826 403.046C458.232 404.175 457.564 405.262 456.827 406.302C456.674 406.447 456.52 406.591 456.369 406.742L456.38 406.905C456.31 406.997 456.241 407.09 456.17 407.181L456.155 406.961C456.046 407.072 455.941 407.19 455.834 407.304C456.92 405.948 457.873 404.49 458.681 402.951L450.295 392.011C450.352 392.989 450.448 393.973 450.571 394.95C449.792 393.684 448.847 392.529 447.76 391.515L447.826 391.6L445.888 396.88C446.337 398.687 446.784 400.727 447.157 402.902L450.601 395.179C450.616 395.3 450.633 395.42 450.65 395.54L447.214 403.243C447.554 405.283 447.797 407.254 447.944 409.155L452.068 402.678C452.091 402.771 452.115 402.864 452.138 402.956L447.97 409.503C448.061 410.771 448.108 412.004 448.111 413.201L453.151 406.55C453.178 406.638 453.204 406.723 453.231 406.807L448.137 413.527L448.112 413.476C448.11 413.95 448.102 414.418 448.086 414.879L453.772 408.478C453.802 408.567 453.83 408.649 453.856 408.724L448.072 415.237C448.066 415.38 448.061 415.523 448.053 415.665C447.986 417.026 447.844 418.382 447.629 419.727L448.178 419.171C448.074 419.387 447.972 419.599 447.874 419.809L447.562 420.125C447.526 420.331 447.485 420.532 447.446 420.734C447.331 420.987 447.22 421.234 447.113 421.474C447.216 421.013 447.312 420.548 447.394 420.08L436.038 412.267C439 419.847 444.58 427.057 444.937 427.515C445.227 426.974 445.49 426.416 445.732 425.847C445.802 425.841 445.873 425.834 445.943 425.827C445.914 425.897 445.884 425.965 445.854 426.035C445.819 426.038 445.783 426.044 445.748 426.048C445.775 426.055 445.808 426.064 445.838 426.073C445.668 426.47 445.491 426.861 445.302 427.238C445.55 427.015 445.927 426.663 446.379 426.216C449.049 426.898 456.243 428.355 462.403 426.202L452.965 424.149C450.945 425.004 448.827 425.604 446.659 425.935ZM453.291 413.993L453.517 413.764L453.504 414.107L453.278 414.337L453.291 413.993Z" fill="black"/>
<path d="M476.792 404.205L476.872 404.227C476.077 402.286 474.467 401.09 472.35 400.638L471.818 409.954C474.892 406.709 476.765 404.241 476.792 404.205Z" fill="black"/>
<path d="M456.995 422.177C455.809 422.848 454.588 423.454 453.337 423.992L462.685 426.026L462.614 426.126C463.797 425.701 464.921 425.128 465.96 424.421C466.367 424.141 466.766 423.853 467.156 423.556L457.367 421.963C457.243 422.034 457.119 422.107 456.995 422.177Z" fill="black"/>
<path d="M467.234 414.443C468.852 412.979 470.318 411.527 471.588 410.196L472.132 400.665L472.243 400.615C470.398 400.304 468.506 400.405 466.705 400.912L467.234 414.443Z" fill="black"/>
<path d="M447.686 391.448C446.601 390.427 445.274 389.697 443.83 389.327C443.76 389.311 443.691 389.298 443.621 389.284C443.795 389.76 444.797 392.558 445.808 396.563L447.686 391.448Z" fill="black"/>
<path d="M447.051 403.166L435.243 396.314L435.254 396.19C434.812 397.601 434.514 399.054 434.364 400.526L447.675 407.84C447.514 406.193 447.295 404.62 447.051 403.166Z" fill="black"/>
<path d="M434.245 402.116L434.236 402.241C434.238 402.199 434.243 402.159 434.245 402.116Z" fill="black"/>
<path d="M434.342 400.774L434.342 400.774C434.346 400.733 434.347 400.69 434.351 400.649L434.342 400.774Z" fill="black"/>
<path d="M447.701 408.115L434.342 400.774C434.3 401.213 434.267 401.66 434.246 402.117L447.801 409.318C447.772 408.914 447.739 408.513 447.701 408.115Z" fill="black"/>
<path d="M447.9 415.34L434.751 408.23C435.073 409.549 435.482 410.845 435.976 412.109L435.994 411.973L447.434 419.843C447.679 418.353 447.835 416.849 447.9 415.34Z" fill="black"/>
<path d="M443.471 389.323L443.533 389.267C441.468 388.899 439.596 389.619 438.08 391.166L445.665 396.602C444.569 392.268 443.487 389.365 443.471 389.323Z" fill="black"/>
<path d="M445.745 396.925L437.987 391.364L438.004 391.243C436.753 392.635 435.826 394.287 435.29 396.08L447.002 402.877C446.632 400.727 446.19 398.711 445.745 396.925Z" fill="black"/>
<path d="M447.912 415.075C447.98 413.246 447.949 411.415 447.82 409.589L434.231 402.369C434.202 403.105 434.202 403.861 434.23 404.637C434.28 405.747 434.431 406.85 434.681 407.932L447.905 415.082L447.912 415.075Z" fill="black"/>
<path d="M3 429.397H1473.82V435.753C1473.82 438.426 1470.3 440.99 1464.05 442.881C1457.79 444.771 1449.3 445.833 1440.45 445.833H36.3726C27.5217 445.833 19.0332 444.771 12.7746 442.881C6.51604 440.99 3 438.426 3 435.753V429.397Z" fill="#2F2E41"/>
<path d="M1473.82 424.231H3V433.154H1473.82V424.231Z" fill="#3F3D56"/>
<path d="M32.0129 156.438L35.2584 158.496L33.2879 154.914C33.8459 154.468 34.5366 154.222 35.2505 154.213C35.2679 154.213 35.2853 154.213 35.3027 154.214C35.5282 154.217 35.7536 154.201 35.9761 154.164L37.076 154.861L36.6045 154.004C37.3838 153.732 38.0572 153.221 38.5286 152.544L40.4973 153.792L39.2536 151.531C39.7773 150.855 40.4448 150.305 41.2077 149.919C41.9705 149.534 42.8097 149.323 43.6642 149.302C45.7113 149.302 47.5349 150.519 48.7122 152.416C49.0602 152.984 49.5522 153.449 50.1382 153.765C50.7242 154.081 51.3834 154.236 52.0488 154.215C52.0854 154.214 52.1221 154.213 52.1589 154.213C54.4189 154.213 56.251 156.776 56.251 159.936C56.251 163.097 54.4189 165.66 52.1589 165.66C51.6619 165.658 51.1728 165.535 50.7336 165.303C49.9643 164.929 49.1229 164.727 48.2678 164.71C47.4126 164.693 46.564 164.863 45.7807 165.206C45.1189 165.503 44.4018 165.658 43.6763 165.66C42.9507 165.661 42.233 165.51 41.5698 165.216C40.7926 164.879 39.9519 164.713 39.1049 164.729C38.2579 164.746 37.4244 164.944 36.6607 165.311C36.2254 165.538 35.7417 165.658 35.2505 165.66C32.9905 165.66 31.1584 163.097 31.1584 159.936C31.1452 158.717 31.4391 157.514 32.0129 156.438Z" fill="#F2F2F2"/>
<path d="M149.188 368.285L148.621 368.852C148.621 368.852 148.81 375.088 148.999 376.41C149.188 377.733 149.944 380 149.377 381.701C148.81 383.402 148.621 384.724 148.81 384.913C148.999 385.102 148.621 385.858 148.621 385.858L150.133 384.913L152.589 379.245L151.455 373.198L149.188 368.285Z" fill="black"/>
<path opacity="0.1" d="M149.188 368.285L148.621 368.852C148.621 368.852 148.81 375.088 148.999 376.41C149.188 377.733 149.944 380 149.377 381.701C148.81 383.402 148.621 384.724 148.81 384.913C148.999 385.102 148.621 385.858 148.621 385.858L150.133 384.913L152.589 379.245L151.455 373.198L149.188 368.285Z" fill="black"/>
<path d="M159.203 427.049C159.203 427.049 159.203 424.971 158.825 424.593C158.447 424.215 157.88 422.892 157.124 422.892C156.369 422.892 153.723 423.648 153.723 423.837C153.745 424.427 153.615 425.013 153.345 425.538C152.967 426.105 150.889 428.372 152.967 428.75C153.658 428.864 154.365 428.838 155.046 428.676C155.728 428.514 156.37 428.218 156.935 427.805C157.124 427.616 157.88 427.427 158.069 427.616C158.258 427.805 159.203 427.049 159.203 427.049Z" fill="black"/>
<path d="M164.493 423.648L165.627 425.727C165.627 425.727 166.005 427.616 166.572 427.805H167.138C167.138 427.805 167.705 429.884 169.028 429.695C170.351 429.506 171.862 428.75 171.862 428.372C171.862 427.994 171.862 426.86 171.295 426.483C170.501 425.834 169.744 425.14 169.028 424.404L168.083 423.459L164.493 423.648Z" fill="black"/>
<path d="M149.992 354.434C149.628 354.619 149.314 354.89 149.077 355.222C148.839 355.554 148.685 355.938 148.627 356.342C148.522 357.691 149.855 358.962 149.426 360.246C149.183 360.974 148.424 361.446 148.206 362.183C148.091 362.77 148.177 363.379 148.451 363.912C148.749 364.642 149.112 365.344 149.536 366.009C150.332 367.26 151.369 368.446 151.582 369.914C151.641 370.17 151.638 370.437 151.574 370.693C151.51 370.948 151.386 371.185 151.213 371.383C151.597 371.093 152.035 370.884 152.502 370.77C154.434 370.124 156.228 369.125 157.793 367.823C158.362 367.423 158.79 366.854 159.017 366.197C159.305 365.036 158.424 363.874 158.508 362.681C158.562 361.918 159.003 361.244 159.252 360.521C159.469 359.8 159.538 359.044 159.455 358.296C159.373 357.549 159.14 356.826 158.77 356.171C158.464 355.537 158.033 354.972 157.502 354.51C156.971 354.048 156.352 353.699 155.682 353.484C154.651 353.244 153.575 353.275 152.56 353.574C151.673 353.758 150.811 354.047 149.992 354.434Z" fill="#2F2E41"/>
<path d="M151.056 364.912C151.472 364.138 152.088 363.491 152.84 363.038C153.591 362.584 154.451 362.341 155.329 362.333C158.352 362.333 157.785 362.144 157.785 362.144L156.841 365.923L154.951 367.813L151.056 364.912Z" fill="black"/>
<path d="M151.834 360.916C151.834 360.916 153.534 363.751 152.401 364.884C151.267 366.018 151.834 367.152 152.023 367.341C152.212 367.53 157.502 367.907 157.502 367.907L157.691 365.262L158.258 362.995C158.258 362.995 155.235 362.428 155.613 361.105C155.991 359.783 151.834 360.916 151.834 360.916Z" fill="#FBBEBE"/>
<path opacity="0.1" d="M151.834 360.916C151.834 360.916 153.534 363.751 152.401 364.884C151.267 366.018 151.834 367.152 152.023 367.341C152.212 367.53 157.502 367.907 157.502 367.907L157.691 365.262L158.258 362.995C158.258 362.995 155.235 362.428 155.613 361.105C155.991 359.783 151.834 360.916 151.834 360.916Z" fill="black"/>
<path d="M165.06 387.747C164.858 388.396 164.605 389.028 164.304 389.637C164.115 389.826 163.548 388.314 163.548 388.314L164.115 386.992L165.06 387.747Z" fill="#FBBEBE"/>
<path d="M162.887 379.15L163.643 383.496H152.306L152.873 379.15H162.887Z" fill="#FBBEBE"/>
<path d="M153.912 362.428C155.895 362.428 157.502 360.82 157.502 358.838C157.502 356.855 155.895 355.248 153.912 355.248C151.929 355.248 150.322 356.855 150.322 358.838C150.322 360.82 151.929 362.428 153.912 362.428Z" fill="#FBBEBE"/>
<path d="M154.668 366.207C154.668 366.207 152.589 366.396 152.589 366.018C152.589 365.64 152.4 364.506 152.022 364.695C151.644 364.884 149.188 365.073 149.377 365.64C149.566 366.207 149.944 367.341 149.566 367.341C149.403 367.374 149.248 367.44 149.111 367.535C148.974 367.63 148.858 367.752 148.769 367.894C148.681 368.035 148.622 368.193 148.597 368.358C148.571 368.522 148.58 368.691 148.621 368.852C148.81 369.797 150.889 375.465 150.889 375.465C150.889 375.465 151.078 377.355 151.644 377.922C151.875 378.219 152 378.585 152 378.961C152 379.337 151.875 379.703 151.644 380C151.266 380.378 152.589 380.756 153.156 381.512C153.723 382.268 158.069 381.701 158.258 381.512C158.447 381.323 162.981 381.323 163.359 380.945C163.737 380.567 163.17 379.434 163.17 379.434C163.17 379.434 162.981 377.733 163.17 377.166C163.359 376.599 162.415 367.341 161.848 366.774C161.281 366.207 163.548 364.506 163.548 364.506C163.548 364.506 163.17 362.995 160.714 362.806C160.714 362.806 159.958 361.672 159.202 361.672C158.447 361.672 156.806 362.551 156.806 362.551C156.806 362.551 156.368 365.073 155.801 365.262C155.353 365.482 154.964 365.806 154.668 366.207Z" fill="black"/>
<path d="M162.226 363.94L163.548 364.506C163.548 364.506 167.327 376.221 166.95 378.489C166.572 380.756 165.627 388.503 165.06 388.503C164.493 388.503 163.359 387.37 163.359 387.37V385.48C163.359 385.102 162.793 383.968 163.17 383.968C163.548 383.968 164.115 383.591 163.737 383.213C163.359 382.835 162.982 382.268 163.359 381.701C163.737 381.134 163.926 380.945 163.737 380.378C163.548 379.811 163.17 379.245 163.548 378.867C163.926 378.489 162.604 376.599 162.604 376.599L160.525 368.285L160.903 364.884L162.226 363.94Z" fill="black"/>
<path d="M162.982 381.89C162.982 381.89 155.801 381.323 154.857 381.323C153.912 381.323 151.792 380.433 151.792 380.433C151.792 380.433 146.354 385.858 148.243 394.739C150.133 403.619 150.511 414.579 151.644 417.791C152.415 420.081 153.046 422.416 153.534 424.782C153.534 424.782 155.423 421.381 159.014 425.16C159.014 425.16 159.391 422.326 158.825 421.192C158.258 420.058 157.502 414.012 157.502 414.012C157.502 414.012 156.179 404.375 156.179 403.242C156.179 402.108 155.423 392.471 155.612 392.282C155.801 392.093 156.746 399.651 156.935 400.974C157.124 402.297 157.691 412.5 158.258 413.634C158.825 414.768 161.47 423.837 162.982 424.404C164.493 424.971 169.595 424.215 169.406 423.837C169.217 423.459 167.894 421.381 167.516 420.814L166.005 418.547L162.415 406.265L164.115 391.338C164.115 391.338 165.06 381.701 162.982 381.89Z" fill="#2F2E41"/>
<path d="M156.099 358.365H151.495C151.3 358.365 151.111 358.296 150.962 358.169C150.814 358.042 150.716 357.866 150.685 357.673L150.228 354.775H157.408L156.766 357.824C156.734 357.977 156.65 358.115 156.528 358.213C156.407 358.312 156.255 358.365 156.099 358.365Z" fill="#2F2E41"/>
<path d="M393.376 357.471H400.64V367.848C399.686 367.848 398.742 367.66 397.86 367.295C396.979 366.93 396.178 366.395 395.504 365.72C394.829 365.046 394.294 364.245 393.929 363.364C393.564 362.482 393.376 361.538 393.376 360.584V357.471Z" fill="#2F2E41"/>
<path d="M389.139 418.264L388.62 420.858H392.252L392.425 418.264H389.139Z" fill="#A0616A"/>
<path d="M390.139 420.339C390.139 420.339 389.447 419.821 389.101 420.167C388.755 420.512 387.544 427.258 387.371 427.431C387.198 427.604 382.01 430.198 383.221 430.371C384.431 430.544 389.101 430.717 389.793 430.371C390.485 430.025 392.387 426.739 392.387 426.739V429.679H392.733C392.733 429.679 393.079 426.566 393.944 425.701C394.808 424.836 393.252 421.896 393.252 421.896C393.252 421.896 393.598 419.994 393.425 419.994C393.252 419.994 390.139 420.339 390.139 420.339Z" fill="black"/>
<path d="M399.862 416.448L399.343 419.042H402.975L403.148 416.448H399.862Z" fill="#A0616A"/>
<path d="M396.711 399.585C396.711 399.585 398.44 404.773 398.786 405.292C399.132 405.811 400.343 415.497 400.343 415.497C400.343 415.497 399.132 417.399 400.689 417.572C402.245 417.745 401.554 417.226 402.591 417.572C402.873 417.679 403.176 417.719 403.476 417.689C403.776 417.659 404.066 417.559 404.321 417.399C404.321 417.399 404.84 416.361 404.494 416.015C404.148 415.67 404.84 406.676 404.84 406.676L403.802 403.563L402.937 393.704C402.937 393.704 403.975 391.11 403.456 390.418C402.937 389.727 401.208 390.937 401.208 390.937L396.711 399.585Z" fill="#2F2E41"/>
<path d="M394.463 386.095C394.463 386.095 393.944 391.629 393.598 391.975C393.252 392.321 389.447 402.006 389.447 402.006C389.447 402.006 388.409 403.217 388.755 407.714C389.101 412.211 389.966 416.707 389.966 416.707C389.966 416.707 389.274 419.302 390.485 419.302C391.695 419.302 392.214 418.61 392.733 419.129C393.252 419.648 393.598 419.129 393.771 418.783C393.944 418.437 394.636 417.226 394.636 416.88C394.636 416.534 395.327 407.714 395.327 407.714C395.327 407.714 401.035 395.088 401.554 394.396C402.073 393.705 405.013 389.9 404.84 387.305L394.463 386.095Z" fill="#2F2E41"/>
<path d="M397.787 362.746C399.792 362.746 401.419 361.12 401.419 359.114C401.419 357.108 399.792 355.482 397.787 355.482C395.781 355.482 394.155 357.108 394.155 359.114C394.155 361.12 395.781 362.746 397.787 362.746Z" fill="#A0616A"/>
<path d="M397.095 362.227C397.095 362.227 398.478 365.34 398.651 366.205C398.824 367.07 402.11 364.475 402.11 364.475C402.11 364.475 400.381 361.535 400.9 360.152L397.095 362.227Z" fill="#A0616A"/>
<path d="M403.629 363.957C403.629 363.957 401.035 362.054 399.132 366.032C397.23 370.01 396.711 369.837 396.711 369.837C396.711 369.837 394.463 370.529 395.154 375.371C395.846 380.214 392.906 386.613 394.117 386.959C395.327 387.305 406.569 389.208 406.569 387.824C406.569 386.441 405.532 381.079 406.396 377.793C407.261 374.507 405.186 363.092 403.629 363.957Z" fill="#3F3D56"/>
<path d="M401.035 364.821C401.035 364.821 398.96 367.934 399.133 370.356C399.306 372.777 399.306 374.334 399.306 374.334C399.306 374.334 395.846 390.937 396.538 390.937C397.23 390.937 399.306 391.802 399.478 391.283C399.651 390.764 403.975 380.214 403.975 380.214C403.975 380.214 405.013 369.664 403.802 367.243C402.592 364.821 401.035 364.821 401.035 364.821Z" fill="#3F3D56"/>
<path d="M396.884 390.418C396.884 390.418 395.155 396.299 397.576 396.472C399.997 396.645 398.614 390.764 398.614 390.764L396.884 390.418Z" fill="#A0616A"/>
<path d="M401.487 417.695C401.487 417.695 400.881 417.241 400.578 417.544C400.275 417.847 399.215 423.753 399.064 423.905C398.912 424.056 394.369 426.328 395.429 426.48C396.489 426.631 400.578 426.783 401.184 426.48C401.79 426.177 403.456 423.299 403.456 423.299V425.874H403.759C403.759 425.874 404.062 423.148 404.819 422.39C405.577 421.633 404.213 419.058 404.213 419.058C404.213 419.058 404.516 417.392 404.365 417.392C404.213 417.392 401.487 417.695 401.487 417.695Z" fill="black"/>
<path d="M396.991 356.734C397.106 356.593 397.257 356.486 397.428 356.424C397.588 356.395 397.753 356.409 397.905 356.465C398.99 356.782 399.931 357.466 400.566 358.4C400.689 358.638 400.874 358.838 401.102 358.98C401.25 359.024 401.395 359.079 401.535 359.145C401.94 359.412 401.699 360.032 401.466 360.457C400.871 361.551 400.596 362.79 400.673 364.033C400.668 364.249 400.732 364.461 400.855 364.639C401.051 364.82 401.307 364.923 401.574 364.926C402.413 365.031 403.259 365.077 404.105 365.061C404.933 365.047 405.851 364.929 406.387 364.298C406.964 363.62 406.874 362.582 406.498 361.775C406.123 360.968 405.514 360.293 405.08 359.515C404.669 358.694 404.345 357.832 404.113 356.943C403.813 355.809 403.33 354.732 402.683 353.753C402.356 353.266 401.932 352.851 401.438 352.534C400.944 352.217 400.391 352.006 399.811 351.912C398.24 351.737 396.791 352.704 395.528 353.656C394.11 354.723 392.601 356.044 392.487 357.816C392.395 359.251 393.257 360.55 393.707 361.915C394.402 364.024 394.111 366.314 393.812 368.514C395.093 367.747 396.542 366.682 396.458 365.192C396.401 364.186 395.643 363.384 395.17 362.494C393.872 360.048 395.352 358.408 396.991 356.734Z" fill="#2F2E41"/>
<path d="M451.763 374.411C452.862 372.493 453.43 370.316 453.408 368.105C453.408 362.406 449.879 357.786 445.525 357.786C441.172 357.786 437.642 362.406 437.642 368.105C437.621 370.316 438.189 372.493 439.288 374.411C438.209 376.338 437.642 378.509 437.642 380.717C437.642 382.925 438.209 385.097 439.288 387.023C438.209 388.95 437.642 391.121 437.642 393.33C437.642 395.538 438.209 397.709 439.288 399.636C438.209 401.562 437.642 403.734 437.642 405.942C437.642 408.15 438.209 410.321 439.288 412.248C438.189 414.166 437.621 416.343 437.642 418.554C437.642 424.253 441.172 428.873 445.525 428.873C449.879 428.873 453.408 424.253 453.408 418.554C453.43 416.343 452.862 414.166 451.763 412.248C452.841 410.321 453.408 408.15 453.408 405.942C453.408 403.734 452.841 401.562 451.763 399.636C452.841 397.709 453.408 395.538 453.408 393.33C453.408 391.121 452.841 388.95 451.763 387.023C452.841 385.097 453.408 382.925 453.408 380.717C453.408 378.509 452.841 376.338 451.763 374.411Z" fill="#3F3D56"/>
<path d="M440.829 365.812C445.183 365.812 448.712 361.192 448.712 355.493C448.712 349.793 445.183 345.173 440.829 345.173C436.476 345.173 432.947 349.793 432.947 355.493C432.947 361.192 436.476 365.812 440.829 365.812Z" fill="#3F3D56"/>
<path d="M440.829 353.199C445.183 353.199 448.712 348.579 448.712 342.88C448.712 337.181 445.183 332.561 440.829 332.561C436.476 332.561 432.947 337.181 432.947 342.88C432.947 348.579 436.476 353.199 440.829 353.199Z" fill="#3F3D56"/>
<path d="M470.338 256.57C471.415 255.199 472.396 253.755 473.274 252.249L452.561 248.847L474.962 249.014C477.111 244.338 478.284 239.273 478.408 234.129C478.532 228.985 477.605 223.869 475.684 219.096L445.63 234.686L473.346 214.312C470.75 209.825 467.257 205.921 463.085 202.842C458.914 199.764 454.153 197.577 449.1 196.419C444.047 195.261 438.809 195.155 433.713 196.11C428.618 197.064 423.773 199.057 419.481 201.965C415.189 204.873 411.542 208.634 408.767 213.013C405.992 217.392 404.149 222.296 403.351 227.419C402.554 232.541 402.82 237.773 404.133 242.789C405.446 247.804 407.778 252.495 410.983 256.57C409.304 258.704 407.86 261.013 406.676 263.456L433.563 277.424L404.894 267.803C402.881 273.753 402.384 280.112 403.447 286.303C404.51 292.494 407.1 298.322 410.983 303.26C406.602 308.83 403.877 315.52 403.119 322.565C402.361 329.61 403.601 336.727 406.696 343.1C409.792 349.474 414.619 354.848 420.625 358.608C426.632 362.368 433.574 364.362 440.66 364.362C447.746 364.362 454.689 362.368 460.695 358.608C466.702 354.848 471.528 349.474 474.624 343.1C477.72 336.727 478.96 329.61 478.202 322.565C477.444 315.52 474.719 308.83 470.338 303.26C475.573 296.605 478.419 288.383 478.419 279.915C478.419 271.448 475.573 263.226 470.338 256.57Z" fill="#F2F2F2"/>
<path d="M402.902 279.915C402.889 288.385 405.736 296.611 410.983 303.26C406.602 308.83 403.877 315.52 403.119 322.565C402.361 329.61 403.601 336.727 406.696 343.1C409.792 349.474 414.619 354.848 420.625 358.608C426.632 362.368 433.575 364.362 440.66 364.362C447.746 364.362 454.689 362.368 460.695 358.608C466.702 354.848 471.528 349.474 474.624 343.1C477.72 336.727 478.96 329.61 478.202 322.565C477.444 315.52 474.719 308.83 470.338 303.26C475.399 296.836 402.902 275.677 402.902 279.915Z" fill="#F2F2F2"/>
<path d="M475.034 256.57C476.111 255.199 477.092 253.755 477.97 252.249L457.257 248.847L479.658 249.014C481.807 244.338 482.98 239.273 483.104 234.129C483.227 228.985 482.301 223.869 480.379 219.096L450.326 234.686L478.042 214.312C475.445 209.825 471.953 205.921 467.781 202.842C463.61 199.764 458.849 197.577 453.796 196.419C448.743 195.261 443.505 195.155 438.409 196.11C433.313 197.064 428.469 199.057 424.177 201.965C419.885 204.873 416.238 208.634 413.463 213.013C410.688 217.392 408.844 222.296 408.047 227.419C407.25 232.541 407.516 237.773 408.829 242.789C410.142 247.804 412.473 252.495 415.678 256.57C414 258.704 412.556 261.013 411.372 263.456L438.258 277.424L409.59 267.803C407.577 273.753 407.08 280.112 408.143 286.303C409.206 292.494 411.796 298.322 415.678 303.26C411.298 308.83 408.573 315.52 407.815 322.565C407.057 329.61 408.296 336.727 411.392 343.1C414.488 349.474 419.315 354.848 425.321 358.608C431.327 362.368 438.27 364.362 445.356 364.362C452.442 364.362 459.385 362.368 465.391 358.608C471.397 354.848 476.224 349.474 479.32 343.1C482.416 336.727 483.656 329.61 482.898 322.565C482.14 315.52 479.415 308.83 475.034 303.26C480.269 296.605 483.115 288.383 483.115 279.915C483.115 271.448 480.269 263.226 475.034 256.57Z" fill="#57B894"/>
<path opacity="0.1" d="M407.598 279.915C407.585 288.385 410.432 296.611 415.678 303.26C411.298 308.83 408.573 315.52 407.815 322.565C407.057 329.61 408.296 336.727 411.392 343.1C414.488 349.474 419.315 354.848 425.321 358.608C431.327 362.368 438.27 364.362 445.356 364.362C452.442 364.362 459.385 362.368 465.391 358.608C471.397 354.848 476.224 349.474 479.32 343.1C482.416 336.727 483.656 329.61 482.898 322.565C482.14 315.52 479.415 308.83 475.034 303.26C480.095 296.836 407.598 275.677 407.598 279.915Z" fill="black"/>
<path d="M50.2575 374.411C51.3566 372.493 51.9245 370.316 51.9027 368.105C51.9027 362.406 48.3735 357.786 44.02 357.786C39.6665 357.786 36.1373 362.406 36.1373 368.105C36.1156 370.316 36.6835 372.493 37.7826 374.411C36.7038 376.338 36.1373 378.509 36.1373 380.717C36.1373 382.925 36.7038 385.097 37.7826 387.023C36.7038 388.95 36.1373 391.121 36.1373 393.33C36.1373 395.538 36.7038 397.709 37.7826 399.636C36.7038 401.562 36.1373 403.734 36.1373 405.942C36.1373 408.15 36.7038 410.321 37.7826 412.248C36.6835 414.166 36.1156 416.343 36.1373 418.554C36.1373 424.253 39.6665 428.873 44.02 428.873C48.3735 428.873 51.9027 424.253 51.9027 418.554C51.9245 416.343 51.3566 414.166 50.2575 412.248C51.3363 410.321 51.9027 408.15 51.9027 405.942C51.9027 403.734 51.3363 401.562 50.2575 399.636C51.3363 397.709 51.9027 395.538 51.9027 393.33C51.9027 391.121 51.3363 388.95 50.2575 387.023C51.3363 385.097 51.9027 382.925 51.9027 380.717C51.9027 378.509 51.3363 376.338 50.2575 374.411Z" fill="#3F3D56"/>
<path d="M44.0199 365.812C48.3734 365.812 51.9026 361.192 51.9026 355.493C51.9026 349.793 48.3734 345.173 44.0199 345.173C39.6664 345.173 36.1372 349.793 36.1372 355.493C36.1372 361.192 39.6664 365.812 44.0199 365.812Z" fill="#3F3D56"/>
<path d="M44.0199 353.199C48.3734 353.199 51.9026 348.579 51.9026 342.88C51.9026 337.181 48.3734 332.561 44.0199 332.561C39.6664 332.561 36.1372 337.181 36.1372 342.88C36.1372 348.579 39.6664 353.199 44.0199 353.199Z" fill="#3F3D56"/>
<path d="M73.5287 256.57C74.6056 255.199 75.5865 253.755 76.4643 252.249L55.7518 248.847L78.1529 249.014C80.3018 244.338 81.4742 239.273 81.5981 234.129C81.7221 228.985 80.7952 223.869 78.874 219.096L48.8202 234.686L76.5368 214.312C73.9401 209.825 70.4473 205.921 66.2759 202.842C62.1045 199.764 57.3438 197.577 52.2906 196.419C47.2373 195.261 41.9996 195.155 36.9038 196.11C31.8081 197.064 26.9634 199.057 22.6715 201.965C18.3797 204.873 14.7326 208.634 11.9576 213.013C9.18258 217.392 7.33901 222.296 6.54174 227.419C5.74447 232.541 6.01058 237.773 7.3235 242.789C8.63641 247.804 10.968 252.495 14.173 256.57C12.4944 258.704 11.0506 261.013 9.86683 263.456L36.7531 277.424L8.08483 267.803C6.07189 273.753 5.57443 280.112 6.63746 286.303C7.70049 292.494 10.2905 298.322 14.173 303.26C9.79227 308.83 7.06713 315.52 6.30918 322.565C5.55123 329.61 6.79106 336.727 9.88691 343.1C12.9828 349.474 17.8097 354.848 23.8158 358.608C29.822 362.368 36.7649 364.362 43.8508 364.362C50.9368 364.362 57.8797 362.368 63.8858 358.608C69.892 354.848 74.7189 349.474 77.8148 343.1C80.9106 336.727 82.1504 329.61 81.3925 322.565C80.6345 315.52 77.9094 308.83 73.5287 303.26C78.7633 296.605 81.6091 288.383 81.6091 279.915C81.6091 271.448 78.7633 263.226 73.5287 256.57Z" fill="#F2F2F2"/>
<path d="M6.09257 279.915C6.07954 288.385 8.92681 296.611 14.173 303.26C9.79228 308.83 7.06714 315.52 6.30919 322.565C5.55124 329.61 6.79107 336.727 9.88693 343.1C12.9828 349.474 17.8097 354.848 23.8159 358.608C29.822 362.368 36.7649 364.362 43.8509 364.362C50.9368 364.362 57.8797 362.368 63.8858 358.608C69.892 354.848 74.7189 349.474 77.8148 343.1C80.9106 336.727 82.1505 329.61 81.3925 322.565C80.6346 315.52 77.9094 308.83 73.5287 303.26C78.5894 296.836 6.09257 275.677 6.09257 279.915Z" fill="#F2F2F2"/>
<path d="M73.5287 256.57C74.6056 255.199 75.5865 253.755 76.4643 252.249L55.7518 248.847L78.1529 249.014C80.3018 244.338 81.4742 239.273 81.5981 234.129C81.7221 228.985 80.7952 223.869 78.874 219.096L48.8202 234.686L76.5368 214.312C73.9401 209.825 70.4473 205.921 66.2759 202.842C62.1045 199.764 57.3438 197.577 52.2906 196.419C47.2373 195.261 41.9996 195.155 36.9038 196.11C31.8081 197.064 26.9634 199.057 22.6715 201.965C18.3797 204.873 14.7326 208.634 11.9576 213.013C9.18258 217.392 7.33901 222.296 6.54174 227.419C5.74447 232.541 6.01058 237.773 7.3235 242.789C8.63641 247.804 10.968 252.495 14.173 256.57C12.4944 258.704 11.0506 261.013 9.86683 263.456L36.7531 277.424L8.08483 267.803C6.07189 273.753 5.57443 280.112 6.63746 286.303C7.70049 292.494 10.2905 298.322 14.173 303.26C9.79227 308.83 7.06713 315.52 6.30918 322.565C5.55123 329.61 6.79106 336.727 9.88691 343.1C12.9828 349.474 17.8097 354.848 23.8158 358.608C29.822 362.368 36.7649 364.362 43.8508 364.362C50.9368 364.362 57.8797 362.368 63.8858 358.608C69.892 354.848 74.7189 349.474 77.8148 343.1C80.9106 336.727 82.1504 329.61 81.3925 322.565C80.6345 315.52 77.9094 308.83 73.5287 303.26C78.7633 296.605 81.6091 288.383 81.6091 279.915C81.6091 271.448 78.7633 263.226 73.5287 256.57Z" fill="#57B894"/>
<path opacity="0.1" d="M6.09257 279.915C6.07954 288.385 8.92681 296.611 14.173 303.26C9.79228 308.83 7.06714 315.52 6.30919 322.565C5.55124 329.61 6.79107 336.727 9.88693 343.1C12.9828 349.474 17.8097 354.848 23.8159 358.608C29.822 362.368 36.7649 364.362 43.8509 364.362C50.9368 364.362 57.8797 362.368 63.8858 358.608C69.892 354.848 74.7189 349.474 77.8148 343.1C80.9106 336.727 82.1505 329.61 81.3925 322.565C80.6346 315.52 77.9094 308.83 73.5287 303.26C78.5894 296.836 6.09257 275.677 6.09257 279.915Z" fill="black"/>
<path d="M278.201 254.498L259.466 273.233L250.59 264.357L247.134 267.813L259.455 280.134L281.658 257.954L278.201 254.498Z" fill="#57B894"/>
<path d="M337.84 211.765L319.105 230.5L310.228 221.624L306.772 225.079L319.093 237.4L341.296 215.221L337.84 211.765Z" fill="#57B894"/>
<path d="M878.014 40.8404C877.838 40.8402 877.668 40.7732 877.539 40.653C877.411 40.5328 877.332 40.3682 877.32 40.1924C876.864 34.0023 874.088 28.2126 869.547 23.9817C865.005 19.7508 859.034 17.3909 852.827 17.3742C852.084 17.3742 851.304 17.412 850.508 17.4865C850.374 17.499 850.24 17.4729 850.122 17.4113C850.003 17.3497 849.905 17.2552 849.838 17.1391C846.987 12.1487 842.729 8.10838 837.596 5.52246C832.464 2.93654 826.683 1.9195 820.976 2.59829C815.268 3.27707 809.888 5.6216 805.504 9.33929C801.121 13.057 797.93 17.9832 796.329 23.5031C796.287 23.6511 796.196 23.7807 796.072 23.8717C795.948 23.9627 795.798 24.0099 795.644 24.0058L795.459 24.0002C795.362 23.997 795.266 23.9936 795.169 23.9936C790.461 24.0083 785.9 25.6323 782.242 28.596C778.584 31.5597 776.049 35.685 775.059 40.2873C775.026 40.4437 774.94 40.584 774.816 40.6847C774.692 40.7854 774.537 40.8404 774.377 40.8404H727.697C727.512 40.8404 727.335 40.767 727.204 40.6363C727.073 40.5056 727 40.3284 727 40.1436C727 39.9588 727.073 39.7816 727.204 39.6509C727.335 39.5202 727.512 39.4468 727.697 39.4468H773.819C774.98 34.6597 777.712 30.3994 781.577 27.3459C785.442 24.2924 790.219 22.6215 795.145 22.6C796.898 16.9276 800.262 11.8865 804.826 8.08918C809.39 4.29186 814.959 1.90175 820.855 1.2092C826.752 0.516661 832.723 1.5515 838.043 4.18799C843.363 6.82449 847.803 10.9492 850.823 16.0609C851.508 16.0075 852.18 15.9806 852.827 15.9806C859.386 15.9984 865.697 18.4924 870.496 22.9636C875.295 27.4347 878.229 33.5533 878.71 40.0948C878.716 40.1861 878.705 40.2777 878.676 40.3645C878.647 40.4513 878.601 40.5315 878.541 40.6006C878.481 40.6697 878.408 40.7263 878.326 40.7671C878.244 40.808 878.155 40.8323 878.064 40.8387C878.047 40.8399 878.031 40.8404 878.014 40.8404Z" fill="#E5E5E5"/>
<path d="M869.724 49.7743H755.453C755.268 49.7743 755.091 49.7009 754.96 49.5702C754.829 49.4396 754.756 49.2623 754.756 49.0775C754.756 48.8927 754.829 48.7155 754.96 48.5848C755.091 48.4542 755.268 48.3808 755.453 48.3808H869.724C869.909 48.3808 870.086 48.4542 870.217 48.5848C870.347 48.7155 870.421 48.8927 870.421 49.0775C870.421 49.2623 870.347 49.4396 870.217 49.5702C870.086 49.7009 869.909 49.7743 869.724 49.7743Z" fill="#E5E5E5"/>
<path d="M783.324 59.8776H745.001C744.816 59.8776 744.639 59.8042 744.508 59.6735C744.378 59.5428 744.304 59.3656 744.304 59.1808C744.304 58.996 744.378 58.8188 744.508 58.6881C744.639 58.5574 744.816 58.484 745.001 58.484H783.324C783.508 58.484 783.686 58.5574 783.816 58.6881C783.947 58.8188 784.02 58.996 784.02 59.1808C784.02 59.3656 783.947 59.5428 783.816 59.6735C783.686 59.8042 783.508 59.8776 783.324 59.8776Z" fill="#E5E5E5"/>
<path d="M1186.01 55.8404C1185.84 55.8402 1185.67 55.7732 1185.54 55.653C1185.41 55.5328 1185.33 55.3682 1185.32 55.1924C1184.86 49.0023 1182.09 43.2126 1177.55 38.9817C1173.01 34.7508 1167.03 32.3909 1160.83 32.3742C1160.08 32.3742 1159.3 32.412 1158.51 32.4865C1158.37 32.499 1158.24 32.4729 1158.12 32.4113C1158 32.3497 1157.9 32.2552 1157.84 32.1391C1154.99 27.1487 1150.73 23.1084 1145.6 20.5225C1140.46 17.9365 1134.68 16.9195 1128.98 17.5983C1123.27 18.2771 1117.89 20.6216 1113.5 24.3393C1109.12 28.057 1105.93 32.9832 1104.33 38.5031C1104.29 38.6511 1104.2 38.7807 1104.07 38.8717C1103.95 38.9627 1103.8 39.0099 1103.64 39.0058L1103.46 39.0002C1103.36 38.997 1103.27 38.9936 1103.17 38.9936C1098.46 39.0083 1093.9 40.6323 1090.24 43.596C1086.58 46.5597 1084.05 50.685 1083.06 55.2873C1083.03 55.4437 1082.94 55.584 1082.82 55.6847C1082.69 55.7854 1082.54 55.8404 1082.38 55.8404H1035.7C1035.51 55.8404 1035.33 55.767 1035.2 55.6363C1035.07 55.5056 1035 55.3284 1035 55.1436C1035 54.9588 1035.07 54.7816 1035.2 54.6509C1035.33 54.5202 1035.51 54.4468 1035.7 54.4468H1081.82C1082.98 49.6597 1085.71 45.3994 1089.58 42.3459C1093.44 39.2924 1098.22 37.6215 1103.14 37.6C1104.9 31.9276 1108.26 26.8865 1112.83 23.0892C1117.39 19.2919 1122.96 16.9017 1128.86 16.2092C1134.75 15.5167 1140.72 16.5515 1146.04 19.188C1151.36 21.8245 1155.8 25.9492 1158.82 31.0609C1159.51 31.0075 1160.18 30.9806 1160.83 30.9806C1167.39 30.9984 1173.7 33.4924 1178.5 37.9636C1183.29 42.4347 1186.23 48.5533 1186.71 55.0948C1186.72 55.1861 1186.7 55.2777 1186.68 55.3645C1186.65 55.4513 1186.6 55.5315 1186.54 55.6006C1186.48 55.6697 1186.41 55.7263 1186.33 55.7671C1186.24 55.808 1186.15 55.8323 1186.06 55.8387C1186.05 55.8399 1186.03 55.8404 1186.01 55.8404Z" fill="#E5E5E5"/>
<path d="M1177.72 64.7743H1063.45C1063.27 64.7743 1063.09 64.7009 1062.96 64.5702C1062.83 64.4396 1062.76 64.2623 1062.76 64.0775C1062.76 63.8927 1062.83 63.7155 1062.96 63.5848C1063.09 63.4542 1063.27 63.3808 1063.45 63.3808H1177.72C1177.91 63.3808 1178.09 63.4542 1178.22 63.5848C1178.35 63.7155 1178.42 63.8927 1178.42 64.0775C1178.42 64.2623 1178.35 64.4396 1178.22 64.5702C1178.09 64.7009 1177.91 64.7743 1177.72 64.7743Z" fill="#E5E5E5"/>
<path d="M1091.32 74.8776H1053C1052.82 74.8776 1052.64 74.8042 1052.51 74.6735C1052.38 74.5428 1052.3 74.3656 1052.3 74.1808C1052.3 73.996 1052.38 73.8188 1052.51 73.6881C1052.64 73.5574 1052.82 73.484 1053 73.484H1091.32C1091.51 73.484 1091.69 73.5574 1091.82 73.6881C1091.95 73.8188 1092.02 73.996 1092.02 74.1808C1092.02 74.3656 1091.95 74.5428 1091.82 74.6735C1091.69 74.8042 1091.51 74.8776 1091.32 74.8776Z" fill="#E5E5E5"/>
<path d="M1423.01 106.84C1422.84 106.84 1422.67 106.773 1422.54 106.653C1422.41 106.533 1422.33 106.368 1422.32 106.192C1421.86 100.002 1419.09 94.2126 1414.55 89.9817C1410.01 85.7508 1404.03 83.3909 1397.83 83.3742C1397.08 83.3742 1396.3 83.412 1395.51 83.4865C1395.37 83.499 1395.24 83.4729 1395.12 83.4113C1395 83.3497 1394.9 83.2552 1394.84 83.1391C1391.99 78.1487 1387.73 74.1084 1382.6 71.5225C1377.46 68.9365 1371.68 67.9195 1365.98 68.5983C1360.27 69.2771 1354.89 71.6216 1350.5 75.3393C1346.12 79.057 1342.93 83.9832 1341.33 89.5031C1341.29 89.6511 1341.2 89.7807 1341.07 89.8717C1340.95 89.9627 1340.8 90.0099 1340.64 90.0058L1340.46 90.0002C1340.36 89.997 1340.27 89.9936 1340.17 89.9936C1335.46 90.0083 1330.9 91.6323 1327.24 94.596C1323.58 97.5597 1321.05 101.685 1320.06 106.287C1320.03 106.444 1319.94 106.584 1319.82 106.685C1319.69 106.785 1319.54 106.84 1319.38 106.84H1272.7C1272.51 106.84 1272.33 106.767 1272.2 106.636C1272.07 106.506 1272 106.328 1272 106.144C1272 105.959 1272.07 105.782 1272.2 105.651C1272.33 105.52 1272.51 105.447 1272.7 105.447H1318.82C1319.98 100.66 1322.71 96.3994 1326.58 93.3459C1330.44 90.2924 1335.22 88.6215 1340.14 88.6C1341.9 82.9276 1345.26 77.8865 1349.83 74.0892C1354.39 70.2919 1359.96 67.9017 1365.86 67.2092C1371.75 66.5167 1377.72 67.5515 1383.04 70.188C1388.36 72.8245 1392.8 76.9492 1395.82 82.0609C1396.51 82.0075 1397.18 81.9806 1397.83 81.9806C1404.39 81.9984 1410.7 84.4924 1415.5 88.9636C1420.29 93.4347 1423.23 99.5533 1423.71 106.095C1423.72 106.186 1423.7 106.278 1423.68 106.365C1423.65 106.451 1423.6 106.532 1423.54 106.601C1423.48 106.67 1423.41 106.726 1423.33 106.767C1423.24 106.808 1423.15 106.832 1423.06 106.839C1423.05 106.84 1423.03 106.84 1423.01 106.84Z" fill="#E5E5E5"/>
<path d="M1414.72 115.774H1300.45C1300.27 115.774 1300.09 115.701 1299.96 115.57C1299.83 115.44 1299.76 115.262 1299.76 115.078C1299.76 114.893 1299.83 114.716 1299.96 114.585C1300.09 114.454 1300.27 114.381 1300.45 114.381H1414.72C1414.91 114.381 1415.09 114.454 1415.22 114.585C1415.35 114.716 1415.42 114.893 1415.42 115.078C1415.42 115.262 1415.35 115.44 1415.22 115.57C1415.09 115.701 1414.91 115.774 1414.72 115.774Z" fill="#E5E5E5"/>
<path d="M1328.32 125.878H1290C1289.82 125.878 1289.64 125.804 1289.51 125.674C1289.38 125.543 1289.3 125.366 1289.3 125.181C1289.3 124.996 1289.38 124.819 1289.51 124.688C1289.64 124.557 1289.82 124.484 1290 124.484H1328.32C1328.51 124.484 1328.69 124.557 1328.82 124.688C1328.95 124.819 1329.02 124.996 1329.02 125.181C1329.02 125.366 1328.95 125.543 1328.82 125.674C1328.69 125.804 1328.51 125.878 1328.32 125.878Z" fill="#E5E5E5"/>
<path d="M539.014 59.8404C538.838 59.8402 538.668 59.7732 538.539 59.653C538.411 59.5328 538.332 59.3682 538.32 59.1924C537.864 53.0023 535.088 47.2126 530.547 42.9817C526.005 38.7508 520.034 36.3909 513.827 36.3742C513.084 36.3742 512.304 36.412 511.508 36.4865C511.374 36.499 511.24 36.4729 511.122 36.4113C511.003 36.3497 510.905 36.2552 510.838 36.1391C507.987 31.1487 503.729 27.1084 498.596 24.5225C493.464 21.9365 487.683 20.9195 481.976 21.5983C476.268 22.2771 470.888 24.6216 466.504 28.3393C462.121 32.057 458.93 36.9832 457.329 42.5031C457.287 42.6511 457.196 42.7807 457.072 42.8717C456.948 42.9627 456.798 43.0099 456.644 43.0058L456.459 43.0002C456.362 42.997 456.266 42.9936 456.169 42.9936C451.461 43.0083 446.9 44.6323 443.242 47.596C439.584 50.5597 437.049 54.685 436.059 59.2873C436.026 59.4437 435.94 59.584 435.816 59.6847C435.692 59.7854 435.537 59.8404 435.377 59.8404H388.697C388.512 59.8404 388.335 59.767 388.204 59.6363C388.073 59.5056 388 59.3284 388 59.1436C388 58.9588 388.073 58.7816 388.204 58.6509C388.335 58.5202 388.512 58.4468 388.697 58.4468H434.819C435.98 53.6597 438.712 49.3994 442.577 46.3459C446.442 43.2924 451.219 41.6215 456.145 41.6C457.898 35.9276 461.262 30.8865 465.826 27.0892C470.39 23.2919 475.959 20.9017 481.855 20.2092C487.752 19.5167 493.723 20.5515 499.043 23.188C504.363 25.8245 508.803 29.9492 511.823 35.0609C512.508 35.0075 513.18 34.9806 513.827 34.9806C520.386 34.9984 526.697 37.4924 531.496 41.9636C536.295 46.4347 539.229 52.5533 539.71 59.0948C539.716 59.1861 539.705 59.2777 539.676 59.3645C539.647 59.4513 539.601 59.5315 539.541 59.6006C539.481 59.6697 539.408 59.7263 539.326 59.7671C539.244 59.808 539.155 59.8323 539.064 59.8387C539.047 59.8399 539.031 59.8404 539.014 59.8404Z" fill="#E5E5E5"/>
<path d="M530.724 68.7743H416.452C416.268 68.7743 416.09 68.7009 415.96 68.5702C415.829 68.4396 415.756 68.2623 415.756 68.0775C415.756 67.8927 415.829 67.7155 415.96 67.5848C416.09 67.4542 416.268 67.3808 416.452 67.3808H530.724C530.908 67.3808 531.086 67.4542 531.216 67.5848C531.347 67.7155 531.42 67.8927 531.42 68.0775C531.42 68.2623 531.347 68.4396 531.216 68.5702C531.086 68.7009 530.908 68.7743 530.724 68.7743Z" fill="#E5E5E5"/>
<path d="M444.323 78.8776H406.001C405.816 78.8776 405.639 78.8042 405.508 78.6735C405.377 78.5428 405.304 78.3656 405.304 78.1808C405.304 77.996 405.377 77.8188 405.508 77.6881C405.639 77.5574 405.816 77.484 406.001 77.484H444.323C444.508 77.484 444.685 77.5574 444.816 77.6881C444.947 77.8188 445.02 77.996 445.02 78.1808C445.02 78.3656 444.947 78.5428 444.816 78.6735C444.685 78.8042 444.508 78.8776 444.323 78.8776Z" fill="#E5E5E5"/>
<path d="M151.014 57.8404C150.838 57.8402 150.668 57.7732 150.539 57.653C150.411 57.5328 150.332 57.3682 150.32 57.1924C149.864 51.0023 147.088 45.2126 142.547 40.9817C138.005 36.7508 132.034 34.3909 125.827 34.3742C125.084 34.3742 124.304 34.412 123.508 34.4865C123.374 34.499 123.24 34.4729 123.122 34.4113C123.003 34.3497 122.905 34.2552 122.838 34.1391C119.987 29.1487 115.729 25.1084 110.596 22.5225C105.464 19.9365 99.6829 18.9195 93.9757 19.5983C88.2685 20.2771 82.8875 22.6216 78.5044 26.3393C74.1213 30.057 70.9301 34.9832 69.329 40.5031C69.2867 40.6511 69.1965 40.7807 69.0724 40.8717C68.9484 40.9627 68.7976 41.0099 68.6438 41.0058L68.4586 41.0002C68.3622 40.997 68.2659 40.9936 68.1688 40.9936C63.461 41.0083 58.8998 42.6323 55.2419 45.596C51.584 48.5597 49.0495 52.685 48.0587 57.2873C48.0258 57.4437 47.94 57.584 47.8159 57.6847C47.6917 57.7854 47.5368 57.8404 47.3769 57.8404H0.696776C0.511979 57.8404 0.334751 57.767 0.20408 57.6363C0.0734096 57.5056 0 57.3284 0 57.1436C0 56.9588 0.0734096 56.7816 0.20408 56.6509C0.334751 56.5202 0.511979 56.4468 0.696776 56.4468H46.8193C47.9804 51.6597 50.7115 47.3994 54.5768 44.3459C58.4421 41.2924 63.2188 39.6215 68.1447 39.6C69.8983 33.9276 73.2615 28.8865 77.8257 25.0892C82.3899 21.2919 87.9587 18.9017 93.8555 18.2092C99.7523 17.5167 105.723 18.5515 111.043 21.188C116.363 23.8245 120.803 27.9492 123.823 33.0609C124.508 33.0075 125.18 32.9806 125.827 32.9806C132.386 32.9984 138.697 35.4924 143.496 39.9636C148.295 44.4347 151.229 50.5533 151.71 57.0948C151.716 57.1861 151.705 57.2777 151.676 57.3645C151.647 57.4513 151.601 57.5315 151.541 57.6006C151.481 57.6697 151.408 57.7263 151.326 57.7671C151.244 57.808 151.155 57.8323 151.064 57.8387C151.047 57.8399 151.031 57.8404 151.014 57.8404Z" fill="#E5E5E5"/>
<path d="M142.724 66.7743H28.4524C28.2676 66.7743 28.0904 66.7009 27.9597 66.5702C27.829 66.4396 27.7556 66.2623 27.7556 66.0775C27.7556 65.8927 27.829 65.7155 27.9597 65.5848C28.0904 65.4542 28.2676 65.3808 28.4524 65.3808H142.724C142.908 65.3808 143.086 65.4542 143.216 65.5848C143.347 65.7155 143.42 65.8927 143.42 66.0775C143.42 66.2623 143.347 66.4396 143.216 66.5702C143.086 66.7009 142.908 66.7743 142.724 66.7743Z" fill="#E5E5E5"/>
<path d="M56.3234 76.8776H18.0007C17.8159 76.8776 17.6387 76.8042 17.508 76.6735C17.3774 76.5428 17.304 76.3656 17.304 76.1808C17.304 75.996 17.3774 75.8188 17.508 75.6881C17.6387 75.5574 17.8159 75.484 18.0007 75.484H56.3234C56.5082 75.484 56.6854 75.5574 56.8161 75.6881C56.9468 75.8188 57.0202 75.996 57.0202 76.1808C57.0202 76.3656 56.9468 76.5428 56.8161 76.6735C56.6854 76.8042 56.5082 76.8776 56.3234 76.8776Z" fill="#E5E5E5"/>
<path d="M353.014 39.8404C352.838 39.8402 352.668 39.7732 352.539 39.653C352.411 39.5328 352.332 39.3682 352.32 39.1924C351.864 33.0023 349.088 27.2126 344.547 22.9817C340.005 18.7508 334.034 16.3909 327.827 16.3742C327.084 16.3742 326.304 16.412 325.508 16.4865C325.374 16.499 325.24 16.4729 325.122 16.4113C325.003 16.3497 324.905 16.2552 324.838 16.1391C321.987 11.1487 317.729 7.10838 312.596 4.52246C307.464 1.93654 301.683 0.919505 295.976 1.59829C290.268 2.27707 284.888 4.6216 280.504 8.33929C276.121 12.057 272.93 16.9832 271.329 22.5031C271.287 22.6511 271.196 22.7807 271.072 22.8717C270.948 22.9627 270.798 23.0099 270.644 23.0058L270.459 23.0002C270.362 22.997 270.266 22.9936 270.169 22.9936C265.461 23.0083 260.9 24.6323 257.242 27.596C253.584 30.5597 251.049 34.685 250.059 39.2873C250.026 39.4437 249.94 39.584 249.816 39.6847C249.692 39.7854 249.537 39.8404 249.377 39.8404H202.697C202.512 39.8404 202.335 39.767 202.204 39.6363C202.073 39.5056 202 39.3284 202 39.1436C202 38.9588 202.073 38.7816 202.204 38.6509C202.335 38.5202 202.512 38.4468 202.697 38.4468H248.819C249.98 33.6597 252.712 29.3994 256.577 26.3459C260.442 23.2924 265.219 21.6215 270.145 21.6C271.898 15.9276 275.262 10.8865 279.826 7.08918C284.39 3.29186 289.959 0.901749 295.855 0.209205C301.752 -0.483339 307.723 0.551497 313.043 3.18799C318.363 5.82449 322.803 9.94916 325.823 15.0609C326.508 15.0075 327.18 14.9806 327.827 14.9806C334.386 14.9984 340.697 17.4924 345.496 21.9636C350.295 26.4347 353.229 32.5533 353.71 39.0948C353.716 39.1861 353.705 39.2777 353.676 39.3645C353.647 39.4513 353.601 39.5315 353.541 39.6006C353.481 39.6697 353.408 39.7263 353.326 39.7671C353.244 39.808 353.155 39.8323 353.064 39.8387C353.047 39.8399 353.031 39.8404 353.014 39.8404Z" fill="#E5E5E5"/>
<path d="M344.724 48.7743H230.452C230.268 48.7743 230.09 48.7009 229.96 48.5702C229.829 48.4396 229.756 48.2623 229.756 48.0775C229.756 47.8927 229.829 47.7155 229.96 47.5848C230.09 47.4542 230.268 47.3808 230.452 47.3808H344.724C344.908 47.3808 345.086 47.4542 345.216 47.5848C345.347 47.7155 345.42 47.8927 345.42 48.0775C345.42 48.2623 345.347 48.4396 345.216 48.5702C345.086 48.7009 344.908 48.7743 344.724 48.7743Z" fill="#E5E5E5"/>
<path d="M258.323 58.8776H220.001C219.816 58.8776 219.639 58.8042 219.508 58.6735C219.377 58.5428 219.304 58.3656 219.304 58.1808C219.304 57.996 219.377 57.8188 219.508 57.6881C219.639 57.5574 219.816 57.484 220.001 57.484H258.323C258.508 57.484 258.685 57.5574 258.816 57.6881C258.947 57.8188 259.02 57.996 259.02 58.1808C259.02 58.3656 258.947 58.5428 258.816 58.6735C258.685 58.8042 258.508 58.8776 258.323 58.8776Z" fill="#E5E5E5"/>
</svg>
